<svg width="1000" height="1000" viewBox="0 0 1000 1000" fill="none" xmlns="http://www.w3.org/2000/svg">
<rect width="1000" height="1000" fill="#8231D4"/>
<path d="M293.044 451.021L290.677 449.838C273.513 441.847 255.462 438 236.522 438C217.583 438 199.235 442.143 182.367 449.838L180 451.021V454.869C180 496.597 200.419 535.957 234.155 560.225L236.522 562L238.89 560.225C272.625 535.957 293.044 496.597 293.044 454.869V451.021ZM236.522 551.938V445.99C253.39 446.286 269.666 449.542 285.054 456.348C284.463 493.933 266.411 529.446 236.522 551.938Z" fill="#FAFAFA"/>
<path d="M364.364 522.046H343.057V466.113H332.403V532.108H371.466C368.506 529.445 366.139 525.893 364.364 522.046Z" fill="#FAFAFA"/>
<path d="M369.689 508.73C369.689 495.117 380.342 484.167 393.955 484.167C407.567 484.167 418.221 495.117 418.221 508.73C418.221 510.21 418.221 511.986 417.925 513.466H380.342C381.822 519.976 387.74 523.823 394.251 523.823C399.281 523.823 404.016 521.752 407.271 517.905L414.374 524.119C398.985 541.284 369.689 532.702 369.689 508.73ZM407.271 504.587C403.72 490.382 383.005 490.382 380.342 504.587H407.271Z" fill="#FAFAFA"/>
<path d="M445.446 533.294C432.129 533.294 422.068 522.048 422.068 509.027C422.068 496.301 432.129 484.463 445.446 484.463C451.956 484.463 457.283 487.423 461.13 492.75V485.351H471.488V527.079C471.488 542.764 463.498 553.122 447.222 553.122C436.864 553.122 428.578 548.091 423.843 538.917L432.721 534.182C435.384 540.101 440.711 543.356 447.222 543.356C457.579 543.356 461.13 536.254 461.426 526.783V524.712C457.283 530.335 451.956 533.294 445.446 533.294ZM446.926 523.528C455.212 523.528 461.426 517.017 461.426 508.731C461.426 500.445 455.212 493.934 446.926 493.934C438.64 493.934 432.425 500.74 432.425 508.731C432.425 517.017 438.64 523.528 446.926 523.528Z" fill="#FAFAFA"/>
<path d="M499.9 533.294C486.583 533.294 476.521 522.048 476.521 509.027C476.521 496.301 486.583 484.463 499.9 484.463C506.411 484.463 511.736 487.423 515.584 492.75V485.351H525.94V532.406H515.584V525.008C511.736 530.335 506.411 533.294 499.9 533.294ZM501.675 523.528C509.962 523.528 516.177 517.017 516.177 508.731C516.177 500.445 509.962 493.934 501.675 493.934C493.389 493.934 487.175 500.74 487.175 508.731C486.879 517.017 493.389 523.528 501.675 523.528Z" fill="#FAFAFA"/>
<path d="M535.706 466.113H546.062V532.108H535.706V466.113Z" fill="#FAFAFA"/>
<path d="M575.954 523.231C580.983 523.231 590.157 521.16 590.157 514.649C590.157 500.444 554.943 507.546 554.943 483.871C554.943 470.257 568.258 465.227 580.095 465.227C586.309 465.227 593.709 467.298 599.627 469.962L595.779 479.432C591.046 477.36 585.424 475.584 580.095 475.584C574.472 475.584 565.891 476.768 565.891 484.167C565.891 498.668 601.105 491.269 601.105 514.945C601.105 528.262 587.494 533.589 575.954 533.589C568.85 533.589 561.454 530.926 554.943 528.262L559.084 518.792C564.117 520.864 570.624 523.231 575.954 523.231Z" fill="#FAFAFA"/>
<path d="M618.568 493.043C620.934 487.125 626.26 484.165 632.475 484.165C644.904 484.165 649.342 494.819 649.342 505.769V532.108H639.579V505.769C639.579 498.962 636.323 493.635 629.22 493.635C622.116 493.635 618.861 498.962 618.861 505.769V532.108H608.505V466.113H618.861V493.043H618.568Z" fill="#FAFAFA"/>
<path d="M658.812 466.113H669.171V477.95H658.812V466.113ZM658.812 485.053H669.171V532.108H658.812V485.053Z" fill="#FAFAFA"/>
<path d="M676.271 508.73C676.271 495.117 686.923 484.167 700.537 484.167C714.148 484.167 724.803 495.117 724.803 508.73C724.803 510.21 724.803 511.986 724.507 513.466H686.923C688.404 519.976 694.322 523.823 700.833 523.823C705.863 523.823 710.596 521.752 713.852 517.905L720.955 524.119C705.567 541.284 676.271 532.702 676.271 508.73ZM714.148 504.587C710.596 490.382 689.882 490.382 687.219 504.587H714.148Z" fill="#FAFAFA"/>
<path d="M731.015 466.113H741.374V532.108H731.015V466.113Z" fill="#FAFAFA"/>
<path d="M769.784 533.291C756.466 533.291 746.407 522.045 746.407 509.023C746.407 496.298 756.466 484.46 769.784 484.46C776.295 484.46 781.621 487.419 785.469 492.747V466.408H795.825V532.403H785.469V525.004C781.621 530.331 776.295 533.291 769.784 533.291ZM771.558 523.524C779.847 523.524 786.061 517.014 786.061 508.727C786.061 500.441 779.847 493.93 771.558 493.93C763.273 493.93 757.058 500.737 757.058 508.727C756.762 517.014 763.273 523.524 771.558 523.524Z" fill="#FAFAFA"/>
<path d="M811.509 468.778H808.846V474.696H807.661V468.778H804.998V467.594H812.398L815.357 471.145L818.316 467.594H819.202V474.992H818.02V470.257L815.357 473.512L812.694 470.257V474.992H811.509V468.778Z" fill="#FAFAFA"/>
</svg>
