<svg xmlns="http://www.w3.org/2000/svg" viewBox="0 0 172 60"><g fill="#fdefd6"><path d="m44.348 53.137 4.712-21.889h10.559l-.774 3.623H52.62l-1.066 4.98h6.071l-.791 3.623h-6.071l-1.29 6.07h6.483l-.774 3.594zM96.353 48.769c0 1.071.378 1.74 1.238 1.74 1.531 0 2.098-1.749 2.855-5.296.378-1.73.757-3.193.757-4.225-.017-1.051-.189-1.787-1.307-1.787-1.548 0-2.012 1.73-2.803 5.382-.172.879-.722 2.82-.739 4.187Zm10.06-12.245s-3.199 14.749-3.99 18.286c-.722 3.221-3.096 5.19-6.845 5.19-2.906 0-4.575-1.262-4.575-3.661 0-.306.069-.793.155-1.262h3.887c-.155.698-.189 1.29 0 1.692.172.43.619.64 1.273.64 1.049 0 1.771-1.071 2.132-2.762l.585-2.791h-.069c-.894 1.29-2.132 1.539-3.508 1.539-2.287 0-3.147-1.759-3.147-3.68 0-1.549 1.101-7.437 1.926-9.387 1.066-2.495 2.58-4.053 4.901-4.053 1.479 0 2.614.545 2.889 2.103h.172l.344-1.854h3.869M107.514 53.844l-.447-17.32h4.162l-.464 12.111h.069l4.66-12.12h4.265l-10.955 22.998h-4.179l2.889-5.668M44.021 17.531c0-2.734 1.118-9.157 2.7-12.962C48.062 1.367 50.642 0 54.58 0c3.199 0 5.022 1.558 5.022 4.33 0 1.099-.275 2.657-.568 3.823h-4.11c.275-1.31.396-2.476.396-3.078 0-.965-.619-1.52-1.634-1.52-1.737 0-2.425 1.099-3.061 2.858-.843 2.351-2.081 8.096-2.081 10.725 0 1.29.602 1.874 1.909 1.874 2.236 0 2.666-2.552 3.182-4.884h4.213c-.911 5.754-3.371 8.421-8.186 8.421-3.697 0-5.641-1.701-5.641-5.018M67.444 12.015c.155-.746.344-1.52.344-2.323s-.361-1.606-1.445-1.606c-2.012 0-2.476 2.514-2.769 3.929zm-4.42 2.524c-.189.918-.499 2.026-.499 2.973.017 1.109.396 1.998 1.393 1.998 1.496 0 2.115-1.577 2.408-2.973h4.093c-1.204 4.54-3.594 5.907-7.137 5.907-3.319 0-4.781-1.874-4.781-4.349 0-1.835.206-2.705.533-4.321.98-4.569 2.408-8.479 7.945-8.479 2.992 0 4.729 1.443 4.729 4.435 0 1.415-.344 2.982-.791 4.808zM100.687 12.015c.155-.746.344-1.52.344-2.323s-.361-1.606-1.445-1.606c-2.029 0-2.476 2.514-2.786 3.929zm-4.42 2.524c-.206.918-.499 2.026-.499 2.973.017 1.109.396 1.998 1.393 1.998 1.496 0 2.115-1.577 2.408-2.973h4.076c-1.204 4.54-3.577 5.907-7.12 5.907-3.336 0-4.781-1.874-4.781-4.349 0-1.835.189-2.705.533-4.321.98-4.569 2.408-8.479 7.945-8.479 2.975 0 4.729 1.443 4.712 4.435 0 1.415-.327 2.982-.774 4.808h-7.894M79.637 43.043c.155-.736.361-1.52.361-2.323s-.378-1.606-1.462-1.606c-2.012 0-2.459 2.514-2.769 3.929h3.869Zm-4.403 2.523c-.206.918-.499 2.026-.499 2.973 0 1.109.396 1.998 1.393 1.998 1.479 0 2.098-1.577 2.408-2.963h4.076c-1.204 4.531-3.594 5.898-7.12 5.898-3.336 0-4.798-1.874-4.798-4.349 0-1.835.206-2.705.55-4.321.963-4.569 2.39-8.479 7.945-8.479 2.975 0 4.712 1.443 4.712 4.435 0 1.424-.344 2.982-.774 4.808h-7.894M77.934 7.312h.12c1.152-1.482 2.27-2.017 3.852-2.017 1.72 0 2.992 1.013 3.01 2.762q0 .43-.103.918l-2.786 13.124H77.9l2.459-11.27c.103-.507.172-.975.172-1.367 0-.765-.275-1.252-1.169-1.252-1.41 0-1.823 1.051-2.15 2.619l-2.442 11.27h-4.041l3.56-16.517h4.007l-.361 1.73M152.434 7.312h.12c1.152-1.482 2.27-2.017 3.852-2.017 1.72 0 2.992 1.013 3.01 2.762q0 .43-.103.918l-2.786 13.124H152.4l2.459-11.27c.103-.507.172-.975.172-1.367 0-.765-.275-1.252-1.169-1.252-1.41 0-1.823 1.051-2.15 2.619l-2.442 11.27h-4.041l3.56-16.517h4.007zM63.746 38.369h.12c1.152-1.491 2.27-2.026 3.852-2.026 1.72 0 2.992 1.013 3.01 2.762q0 .43-.103.918l-2.769 13.124h-4.127l2.442-11.27c.103-.507.189-.975.172-1.367 0-.765-.275-1.252-1.152-1.252-1.41 0-1.823 1.051-2.167 2.619l-2.442 11.27h-4.041l3.577-16.517h4.007l-.378 1.74M88.081 2.992l4.54-2.026-.997 4.607h2.081l-.602 2.82h-2.098l-2.081 9.654a2.4 2.4 0 0 0-.052.459c.017.574.396.832 1.29.832.258 0 .533-.029.757-.096L90.3 22.1c-.568.057-1.273.162-2.287.162-2.236 0-3.371-1.051-3.371-2.992 0-.315.052-.746.12-1.032zM162.374 2.992l4.523-2.026-.997 4.607h2.098l-.602 2.82h-2.098l-2.098 9.654a2.4 2.4 0 0 0-.052.459c.017.574.413.832 1.29.832.275 0 .533-.029.757-.096l-.602 2.858c-.585.057-1.273.162-2.287.162-2.253 0-3.371-1.051-3.371-2.992 0-.315.052-.746.103-1.032zM111.297 5.582l-.482 2.198h.138c.808-1.482 1.875-2.409 4.162-2.409l-.86 3.976c-.189-.01-.378-.019-.55-.019-2.132 0-3.182 1.042-3.577 2.963l-2.081 9.817h-4.11l3.56-16.527h3.801M90.506 36.591l-.499 2.199h.155c.791-1.472 1.857-2.409 4.162-2.409l-.86 3.976q-.283-.017-.568-.019c-2.115 0-3.164 1.051-3.577 2.963l-2.081 9.817h-4.093l3.56-16.527zM119.397 10.706h1.531c2.322 0 3.457-2.791 3.457-5.143 0-1.453-.585-2.036-1.84-2.036h-1.513zM117.368.21h6.225c3.525 0 5.056 1.969 5.056 4.646 0 1.376-.12 1.864-.464 3.164-.929 3.537-2.906 6.127-6.845 6.127h-2.614l-1.703 7.953h-4.317zM135.202 14.931c.585-2.227.98-4.072.98-4.98 0-.736-.155-1.759-1.376-1.759-2.115 0-2.356 2.371-3.078 4.942-.396 1.386-.808 2.992-.808 4.56 0 1.262.482 1.778 1.427 1.778 1.84 0 2.322-2.466 2.855-4.54Zm-8.272 3.326c0-.717.258-3.642.98-6.022 1.359-4.454 2.82-6.94 7.257-6.94 3.577 0 4.918 1.549 4.918 4.311 0 .851-.258 2.877-.791 5.057-1.169 4.846-2.803 7.771-7.636 7.771-3.078 0-4.729-1.434-4.729-4.177M148.083.258l-.774 3.613h-4.093l.791-3.613zm-4.712 21.87h-4.059l3.56-16.565h4.059zM17.606 26.812H35.13c-.258-9.463-8.014-17.053-17.541-17.053C7.872 9.759.013 17.626.013 27.328s7.859 17.569 17.576 17.569c9.51 0 17.249-7.561 17.541-17.005H17.606zM124.333 26.812H35.13c.017.172.017.344.017.516 0 .191 0 .373-.017.564h88.584zM169.356 19.337c.447-.01.55-.201.55-.43s-.103-.344-.482-.344h-.568v.774h.499Zm-.499.478v1.319h-.482v-3.049h.997c.55 0 1.135.153 1.135.841 0 .354-.224.631-.619.707v.019c.413.076.464.268.516.593.034.296.069.612.172.889h-.602c-.034-.172-.086-.373-.103-.545-.034-.268-.034-.507-.172-.65-.12-.124-.275-.115-.447-.124h-.396Zm2.683-.172a2.145 2.145 0 0 0-2.132-2.132c-1.187 0-2.15.965-2.15 2.132a2.14 2.14 0 1 0 4.282 0m-4.729 0a2.583 2.583 0 0 1 2.597-2.581 2.58 2.58 0 0 1 2.58 2.581c0 1.443-1.152 2.6-2.58 2.6a2.587 2.587 0 0 1-2.597-2.6"/></g></svg>