<svg xmlns="http://www.w3.org/2000/svg" xmlns:xlink="http://www.w3.org/1999/xlink" viewBox="0 0 704 212"><defs><linearGradient id="a" x1="54.505" x2="649.495" y1="106" y2="106" data-name="New Gradient Swatch" gradientUnits="userSpaceOnUse"><stop offset="0" stop-color="#1290dd"/><stop offset="1" stop-color="#fdefd6"/></linearGradient><linearGradient xlink:href="#a" id="b" x1="108.868" x2="595.132" y1="106" y2="106" data-name="New Gradient Swatch"/><linearGradient xlink:href="#a" id="c" x1="163.224" x2="540.776" y1="106" y2="106" data-name="New Gradient Swatch"/><linearGradient xlink:href="#a" id="d" x1="217.579" x2="486.421" y1="106" y2="106" data-name="New Gradient Swatch"/><linearGradient xlink:href="#a" id="e" x1="271.931" x2="432.069" y1="106" y2="106" data-name="New Gradient Swatch"/><linearGradient xlink:href="#a" id="f" x1="326.275" x2="377.725" y1="106" y2="106" data-name="New Gradient Swatch"/></defs><path d="M352 210.59 1.889 106 352 1.41 702.111 106z"/><path fill="none" stroke="url(#a)" stroke-miterlimit="10" d="M647.748 106 352 17.648 56.252 106 352 194.352z"/><path fill="none" stroke="url(#b)" stroke-miterlimit="10" d="M593.385 106 352 33.885 110.615 106 352 178.115z"/><path fill="none" stroke="url(#c)" stroke-miterlimit="10" d="M539.03 106 352 50.121 164.97 106 352 161.879z"/><path fill="none" stroke="url(#d)" stroke-miterlimit="10" d="M484.674 106 352 66.358 219.326 106 352 145.642z"/><path fill="none" stroke="url(#e)" stroke-miterlimit="10" d="M430.323 106 352 82.595 273.677 106 352 129.405z"/><path fill="none" stroke="url(#f)" stroke-miterlimit="10" d="M375.979 106 352 98.835 328.021 106 352 113.165z"/></svg>