<svg xmlns="http://www.w3.org/2000/svg" viewBox="0 0 74 18"><g fill="#fdefd6"><path d="M18.114 1.995h4.592c1.671 0 2.812.095 3.742 1.101.683.702 1.005 1.633 1.005 2.657 0 1.044-.341 1.937-1.08 2.677-.723.721-1.67 1.178-4.14 1.178h-2.221V15.7h-1.898zm1.898 6.016h2.258c1.256 0 3.172-.093 3.172-2.333 0-2.147-1.786-2.147-2.775-2.147h-2.655zM33.609 15.7c-.134-.473-.172-.929-.172-1.424-.853 1.577-2.144 1.729-2.943 1.729-2.183 0-3.357-1.234-3.357-2.81 0-.76.263-1.974 1.67-2.791 1.025-.569 2.544-.625 3.303-.625.455 0 .741.019 1.29.057 0-1.178 0-1.692-.34-2.108-.361-.475-1.14-.627-1.654-.627-1.802 0-1.897 1.234-1.917 1.614h-1.781c.055-.492.112-1.158.662-1.804.724-.797 2.069-1.025 3.075-1.025 1.386 0 2.867.435 3.38 1.405.306.57.323 1.025.323 1.462l-.077 4.556c0 .151.021 1.424.152 2.392zm-1.234-4.689c-.722 0-3.435 0-3.435 1.937 0 .607.378 1.651 1.974 1.651.911 0 1.594-.36 2.032-1.025.399-.645.417-1.177.454-2.506a8 8 0 0 0-1.025-.057M36.72 1.995h1.783V15.7H36.72zM46.182 15.7c-.132-.473-.171-.929-.171-1.424-.855 1.577-2.146 1.729-2.941 1.729-2.185 0-3.364-1.234-3.364-2.81 0-.76.268-1.974 1.672-2.791 1.026-.569 2.543-.625 3.303-.625.454 0 .741.019 1.29.057 0-1.178 0-1.692-.341-2.108-.361-.475-1.14-.627-1.651-.627-1.804 0-1.897 1.234-1.917 1.614h-1.786c.057-.492.114-1.158.664-1.804.721-.797 2.071-1.025 3.075-1.025 1.387 0 2.865.435 3.379 1.405.304.57.322 1.025.322 1.462l-.075 4.556c0 .151.019 1.424.152 2.392H46.18Zm-1.235-4.689c-.722 0-3.435 0-3.435 1.937 0 .607.38 1.651 1.974 1.651.912 0 1.594-.36 2.032-1.025.397-.645.416-1.177.455-2.506a8 8 0 0 0-1.026-.057M49.318 7.272 49.3 6.169h1.784l.019 1.54c.208-.399.891-1.729 3.055-1.729.853 0 3.456.324 3.456 3.246v6.473H55.79V9.644c0-.627-.076-1.196-.513-1.633-.457-.436-1.082-.644-1.689-.644-1.292 0-2.487.93-2.487 2.846V15.7h-1.785V7.272ZM58.171 6.17h1.689V4.139l1.764-.569v2.6h2.126v1.31h-2.126v5.678c0 .474 0 1.272 1.273 1.272.361 0 .701-.058.853-.096v1.386a9 9 0 0 1-1.481.112c-1.632 0-2.409-.472-2.409-2.029V7.48h-1.689zM65.006 1.995h2.145v1.993h-2.145zm.19 4.175h1.787v9.53h-1.787zM68.626 8.107c0-.645-.039-1.31-.097-1.937h1.804l.038 1.841c.341-1.328 1.481-1.764 2.278-1.878a5.6 5.6 0 0 1 1.234-.038v1.746a1.5 1.5 0 0 0-.342-.075c-.133-.019-.302-.019-.512-.019-2.107 0-2.603 1.252-2.603 2.885V15.7h-1.801V8.106Z"/></g><g fill="#fdefd6"><path d="M7.088.167a6.69 6.69 0 1 0 0 13.379 6.69 6.69 0 0 0 0-13.379m0 11.32a4.625 4.625 0 1 1 0-9.253 4.625 4.625 0 0 1 0 9.254Z"/><path d="M13.067 12.958 7.088 15.54l-5.979-2.582-.993 1.904 6.972 2.971 6.972-2.971z"/></g></svg>