<svg xmlns="http://www.w3.org/2000/svg" viewBox="0 0 2422 460"><g fill="#fdefd6"><path d="M260.02 137.139V95.624a308 308 0 0 1 12.25-.632c113.546-3.569 188.037 97.562 188.037 97.562s-80.455 111.748-166.719 111.748c-12.425 0-23.543-2.003-33.568-5.367V173.047c44.204 5.34 53.09 24.864 79.673 69.161l59.104-49.834s-43.143-56.587-115.873-56.587c-7.914 0-15.477.559-22.904 1.351M260.02 0v62.011c4.076-.322 8.156-.582 12.25-.729 157.903-5.32 260.772 129.497 260.772 129.497S414.881 334.461 291.785 334.461c-11.279 0-21.84-1.041-31.765-2.797v38.331c8.489 1.079 17.277 1.713 26.453 1.713 114.557 0 197.397-58.497 277.62-127.739 13.291 10.649 67.746 36.555 78.944 47.911-76.279 63.849-254.031 115.314-354.803 115.314-9.71 0-19.05-.587-28.213-1.466v53.87h435.403V0zm0 298.935v32.729c-105.951-18.891-135.359-129.027-135.359-129.027s50.87-56.364 135.359-65.498v35.908c-.065 0-.107-.017-.165-.017-44.334-5.325-78.976 36.1-78.976 36.1s19.407 69.736 79.141 89.805M71.838 197.864s62.796-92.66 188.182-102.24V62.011C121.142 73.157.876 190.779.876 190.779s68.113 196.92 259.144 214.949v-35.733C119.836 352.358 71.838 197.864 71.838 197.864M1479.7 86.846l.03 301.674h85.196V86.851zm-670.225-.41V388.52h85.956V159.143l66.589.023c22.059 0 37.768 5.489 48.398 16.831 13.476 14.361 18.977 37.51 18.977 79.877V388.52l83.269-.015.015-166.885c0-119.121-75.932-135.185-150.214-135.185H809.474m807.407.421V388.52h138.188c73.626 0 97.656-12.245 123.645-39.699 18.372-19.273 30.24-61.581 30.24-107.817 0-42.402-10.046-80.231-27.575-103.788-31.563-42.126-77.038-50.361-144.924-50.361h-119.573Zm84.512 65.686h36.632c53.144 0 87.514 23.865 87.514 85.788s-34.37 85.803-87.514 85.803h-36.632zm-344.534-65.686-71.104 239.086-68.134-239.071-91.97-.015 97.304 301.664h122.795l98.069-301.664zM1948.6 388.52h85.211V86.871l-85.231-.015zm238.838-301.555-118.969 301.452h84.009l18.822-53.281h140.795l17.818 53.281h91.211L2301.247 86.94zm55.305 54.997 51.611 141.225h-104.851z"/></g></svg>
