<svg xmlns="http://www.w3.org/2000/svg" viewBox="0 0 1920 1080"><defs><clipPath id="a"><rect width="1190.332" height="739.404" x="679.668" y="289.796" fill="none" rx="6" ry="6"/></clipPath></defs><path fill="#1e2022" d="M0 0h1920v1080H0z"/><path fill="#fafafa" d="M74.946 55.896c-.117 0-.229.02-.342.035l-1.15-2.779c.09-.07.183-.135.266-.217a2.755 2.755 0 0 0-3.895-3.895c-.082.083-.147.175-.216.265l-2.779-1.151c.014-.113.034-.224.034-.341a2.754 2.754 0 1 0-5.508 0c0 .117.02.228.034.341l-2.779 1.151c-.07-.09-.135-.183-.217-.265a2.753 2.753 0 1 0-3.895 3.895c.083.083.176.147.266.217l-1.15 2.779c-.113-.014-.225-.035-.342-.035a2.754 2.754 0 1 0 0 5.508c.117 0 .228-.02.341-.035l1.151 2.779c-.09.07-.183.134-.266.217a2.755 2.755 0 0 0 3.895 3.895c.082-.083.147-.176.217-.266l2.779 1.151c-.014.113-.034.224-.034.341a2.754 2.754 0 1 0 5.508 0c0-.117-.02-.228-.034-.341l2.779-1.151c.07.09.135.183.217.266a2.753 2.753 0 1 0 3.895-3.895c-.083-.083-.176-.147-.266-.217l1.151-2.779c.113.014.224.035.342.035a2.754 2.754 0 1 0 0-5.508Zm-2.832 7.695a2.74 2.74 0 0 0-2.29.774 2.74 2.74 0 0 0-.773 2.289l-2.776 1.15c-.504-.647-1.282-1.071-2.166-1.071s-1.662.424-2.166 1.071l-2.776-1.15a2.74 2.74 0 0 0-.773-2.289 2.74 2.74 0 0 0-2.29-.774l-1.149-2.775c.648-.504 1.072-1.282 1.072-2.166s-.424-1.662-1.072-2.166l1.149-2.775a2.74 2.74 0 0 0 2.29-.774 2.74 2.74 0 0 0 .773-2.289l2.776-1.15c.504.648 1.282 1.071 2.166 1.071s1.662-.424 2.166-1.071l2.776 1.15a2.74 2.74 0 0 0 .773 2.289 2.74 2.74 0 0 0 2.29.774l1.149 2.775c-.648.504-1.071 1.282-1.071 2.166s.424 1.662 1.071 2.166z"/><g fill="#fafafa"><path d="M113.257 56.99v8.945h-2.046l-.207-2.76h-.161c-1.035 1.862-3.242 2.989-5.817 2.989-4.346 0-7.497-3.196-7.497-8.438 0-5.289 3.196-8.762 8.025-8.762 3.749 0 6.6 2.139 7.06 5.266h-2.575c-.506-1.932-2.276-3.035-4.53-3.035-3.449 0-5.335 2.575-5.335 6.554 0 4.231 2.139 6.231 5.174 6.231 3.058 0 5.082-2.093 5.22-4.921h-5.887V56.99h8.577ZM116.895 53.84h2.069l.299 2.415h.138c.667-1.771 2.092-2.599 3.886-2.599v2.115c-2.713.023-4.024 1.701-4.024 4.691v5.473h-2.369zM125.404 49.195h2.346v2.828h-2.346zm0 4.645h2.346v12.096h-2.346zM140.191 65.936l-.253-2.139h-.161c-.621 1.472-2.23 2.368-4.116 2.368-3.127 0-5.105-2.392-5.105-6.186 0-3.909 2.07-6.369 5.128-6.369 2.069 0 3.495 1.104 4.093 2.598h.161v-7.197h2.392v16.925zm-.253-6.669c0-2.207-1.518-3.587-3.518-3.587-2.23 0-3.426 1.679-3.426 4.3 0 2.736 1.334 4.14 3.38 4.14 2.116 0 3.564-1.495 3.564-3.496zM151.602 49.172h3.265l4.967 11.405h.138l4.99-11.405h3.242v16.764h-2.438v-8.555l.184-4.852h-.138l-5.887 13.107-5.91-13.107h-.161l.207 4.875v8.531h-2.46V49.171ZM176.119 58.715h3.104v-.851c0-1.679-1.035-2.369-2.53-2.369-1.54 0-2.529.782-2.598 1.955h-2.299c.184-2.346 2.185-3.84 4.99-3.84 3.196 0 4.783 1.725 4.783 4.392v5.312c0 .46.069.897.713.897.161 0 .345-.023.414-.046v1.747a4.6 4.6 0 0 1-1.195.185c-1.357 0-2.116-.713-2.139-2.116h-.161c-.506 1.334-2.069 2.185-3.932 2.185-2.392 0-3.978-1.426-3.978-3.541 0-2.553 1.932-3.909 4.829-3.909Zm-.207 5.542c2.023 0 3.311-1.38 3.311-3.334v-.575h-2.851c-1.863 0-2.668.805-2.668 2 0 1.242.874 1.909 2.208 1.909M185.343 53.84h2.069l.322 2.254h.161c.736-1.564 2.23-2.483 4.047-2.483 2.69 0 4.185 1.954 4.185 4.943v7.382h-2.391v-7.151c0-2.116-.966-3.104-2.69-3.104-2.024 0-3.334 1.587-3.334 3.909v6.347h-2.368V53.841ZM203.535 58.715h3.104v-.851c0-1.679-1.035-2.369-2.53-2.369-1.54 0-2.529.782-2.598 1.955h-2.299c.184-2.346 2.185-3.84 4.99-3.84 3.196 0 4.783 1.725 4.783 4.392v5.312c0 .46.069.897.713.897.161 0 .345-.023.414-.046v1.747a4.6 4.6 0 0 1-1.195.185c-1.357 0-2.116-.713-2.139-2.116h-.161c-.506 1.334-2.069 2.185-3.932 2.185-2.392 0-3.978-1.426-3.978-3.541 0-2.553 1.932-3.909 4.829-3.909Zm-.207 5.542c2.023 0 3.311-1.38 3.311-3.334v-.575h-2.851c-1.863 0-2.668.805-2.668 2 0 1.242.874 1.909 2.208 1.909M213.701 64.878v-.161a1.77 1.77 0 0 1-1.241-1.702c0-.988.667-1.747 1.632-2.046v-.161c-1.126-.667-1.748-1.84-1.748-3.196 0-2.415 1.908-4.001 4.645-4.001.805 0 1.632.16 2.184.46.46-1.334 1.84-2.23 3.61-2.23v1.908c-1.081 0-1.978.46-2.23 1.104.759.69 1.196 1.702 1.196 2.828 0 2.369-1.839 3.933-4.599 3.933-.552 0-1.126-.046-1.586-.161-.598.115-.92.506-.92 1.012 0 .943.989.989 1.564.989h3.081c2.392 0 3.726 1.195 3.726 3.104 0 2.483-2.346 3.587-5.979 3.587-3.564 0-5.151-1.173-5.151-2.921 0-1.149.736-2.046 1.816-2.345Zm3.449 3.518c2.483 0 3.495-.644 3.495-1.747 0-1.288-1.356-1.288-1.655-1.288h-3.127c-1.219 0-1.816.575-1.816 1.449 0 1.08.989 1.586 3.104 1.586Zm-.114-8.462c1.518 0 2.369-.92 2.369-2.3 0-1.472-.943-2.322-2.369-2.322-1.472 0-2.345.943-2.345 2.322 0 1.472.942 2.3 2.345 2.3M224.236 59.934c0-3.84 2.299-6.323 5.749-6.323 3.426 0 5.45 2.185 5.45 5.473 0 .414-.046.942-.115 1.333h-8.692c-.046 2.484 1.311 3.841 3.403 3.841 1.633 0 2.806-.828 3.104-2.023h2.369c-.414 2.345-2.576 3.932-5.496 3.932-3.449 0-5.772-2.46-5.772-6.231Zm8.807-1.219c0-2.047-1.15-3.196-3.104-3.196-1.932 0-3.219 1.265-3.288 3.196zM238.289 53.84h2.046l.322 2.254h.184c.736-1.656 2.001-2.483 3.656-2.483 1.748 0 2.989 1.08 3.519 2.598h.184c.736-1.747 2.254-2.598 3.933-2.598 2.575 0 4.001 1.908 4.001 4.943v7.382h-2.369v-7.151c0-2.116-.874-3.104-2.46-3.104-2 0-2.897 1.563-2.897 3.748v6.508h-2.392v-7.151c0-2.116-.851-3.104-2.414-3.104-1.816 0-2.943 1.54-2.943 3.725v6.531h-2.369V53.842ZM258.782 59.934c0-3.84 2.299-6.323 5.749-6.323 3.426 0 5.45 2.185 5.45 5.473 0 .414-.046.942-.115 1.333h-8.692c-.046 2.484 1.311 3.841 3.403 3.841 1.633 0 2.806-.828 3.104-2.023h2.369c-.414 2.345-2.576 3.932-5.496 3.932-3.449 0-5.772-2.46-5.772-6.231Zm8.807-1.219c0-2.047-1.15-3.196-3.104-3.196-1.932 0-3.219 1.265-3.288 3.196zM272.834 53.84h2.07l.322 2.254h.161c.736-1.564 2.23-2.483 4.047-2.483 2.69 0 4.185 1.954 4.185 4.943v7.382h-2.392v-7.151c0-2.116-.966-3.104-2.69-3.104-2.023 0-3.334 1.587-3.334 3.909v6.347h-2.369V53.841ZM287.371 53.84v-3.472l2.391-.92v4.392h2.668v1.978h-2.668v6.484c0 .897.161 1.817 1.61 1.817.391 0 .851-.047 1.058-.115v1.932a7 7 0 0 1-1.679.184c-2.667 0-3.38-1.587-3.38-3.564v-6.737h-2.024v-1.978zM307.264 48.965c4.875 0 7.911 3.473 7.911 8.577 0 5.289-3.15 8.623-7.911 8.623-4.897 0-7.91-3.518-7.91-8.6 0-5.243 3.174-8.601 7.91-8.601Zm0 14.924c3.289 0 5.289-2.529 5.289-6.323 0-3.887-2.093-6.37-5.289-6.37-3.242 0-5.266 2.529-5.266 6.347 0 3.909 2.069 6.347 5.266 6.347ZM324.123 64.142c2.461 0 3.84-1.149 3.84-2.828 0-1.909-1.748-2.3-2.506-2.483l-2.966-.645c-1.495-.299-4.714-1.012-4.714-4.438 0-2.897 2.415-4.806 6.094-4.806 3.863 0 6.094 1.954 6.163 4.897h-2.576c-.138-1.954-1.564-2.874-3.725-2.874-2.139 0-3.334.966-3.334 2.438 0 1.793 1.793 2.185 2.828 2.438l2.966.598c2.138.437 4.415 1.633 4.415 4.645 0 3.266-2.576 5.082-6.485 5.082-4.392 0-6.668-2.253-6.714-5.427h2.576c.092 2.23 1.494 3.403 4.139 3.403Z"/></g><rect width="300.835" height="86.064" x="961.499" y="101.239" fill="#fafafa" opacity=".07" rx="6" ry="6"/><path fill="#fafafa" d="M1040.977 148.192v3.174h-3.174v5.582h-3.758v-5.582h-12.732v-3.138l10.908-17.585h5.582v17.548h3.174Zm-6.932 0v-14.301l-8.793 14.301z"/><g fill="#fafafa"><path d="M1054.383 151.412v-.105c-.861-.397-1.363-1.245-1.363-2.226 0-1.536 1.338-2.609 3.35-2.609 1.988 0 3.324 1.06 3.324 2.609 0 .967-.502 1.815-1.363 2.226v.105c.875.411 1.363 1.245 1.363 2.226 0 1.562-1.336 2.622-3.336 2.622s-3.338-1.073-3.338-2.622c0-1.007.49-1.815 1.363-2.226m1.974-.728c1.045 0 1.641-.57 1.641-1.391 0-.874-.662-1.391-1.641-1.391-1.033 0-1.643.557-1.643 1.391 0 .875.676 1.391 1.643 1.391m0 4.133c1.045 0 1.641-.57 1.641-1.391 0-.875-.662-1.404-1.641-1.404-1.047 0-1.643.583-1.643 1.404 0 .9.688 1.391 1.643 1.391M1067.471 154.671v1.457h-6.518v-.331c0-2.199 1.484-3.152 3.1-4.278.861-.623 1.604-1.192 1.604-2.199 0-.914-.596-1.417-1.471-1.417-.994 0-1.562.623-1.496 1.656h-1.643c-.053-1.868 1.258-3.099 3.219-3.099 1.867 0 3.1 1.152 3.1 2.861 0 1.47-.914 2.371-2.041 3.192-.992.715-2.158 1.377-2.529 2.265a19 19 0 0 1 1.961-.106h2.715ZM1076.107 156.26c-2.82 0-4.635-1.986-4.635-4.953s1.84-4.954 4.635-4.954c2.318 0 4 1.324 4.277 3.364h-1.801c-.277-1.152-1.244-1.828-2.49-1.828-1.721 0-2.793 1.325-2.793 3.431 0 2.146 1.072 3.404 2.768 3.404 1.363 0 2.277-.742 2.516-1.854h1.801c-.25 2.053-1.986 3.391-4.277 3.391ZM1088.229 156.128h-1.43l-.213-1.285h-.119c-.396.861-1.205 1.417-2.316 1.417-1.523 0-2.346-1.033-2.346-2.729v-4.423h1.656v4.185c0 1.073.49 1.589 1.363 1.589 1.086 0 1.762-.861 1.762-2.079v-3.695h1.643zM1092.615 155.055c.795 0 1.244-.344 1.244-.901 0-.596-.477-.728-.807-.781l-1.365-.251c-1.43-.252-1.973-.994-1.973-1.947 0-1.404 1.111-2.198 2.807-2.198 1.762 0 2.809.874 2.834 2.185h-1.602c-.027-.675-.504-.993-1.244-.993s-1.152.331-1.152.848c0 .649.635.755 1.006.808l1.285.225c1.377.226 1.906.994 1.906 2 0 1.377-1.178 2.212-2.953 2.212-1.92 0-3.006-.954-3.006-2.305h1.602c0 .702.543 1.1 1.418 1.1ZM1097.266 149.108v-1.894l1.654-.636v2.53h1.523v1.337h-1.523v3.444c0 .556.133 1.006.889 1.006.211 0 .502-.04.635-.079v1.311c-.396.08-.715.106-1.086.106-1.734 0-2.092-1.02-2.092-2.159v-3.629h-1.152v-1.337zM1104.682 148.976c2.066 0 3.443 1.483 3.443 3.655 0 2.146-1.377 3.629-3.443 3.629-2.078 0-3.457-1.483-3.457-3.629 0-2.159 1.379-3.655 3.457-3.655m-.014 5.893c1.113 0 1.775-.874 1.775-2.265 0-1.351-.648-2.238-1.775-2.238-1.098 0-1.773.874-1.773 2.251s.662 2.251 1.773 2.251ZM1109.572 149.108h1.43l.199 1.298h.119c.424-.954 1.1-1.43 2.08-1.43 1.006 0 1.707.583 2.025 1.47h.119c.438-1.006 1.285-1.47 2.252-1.47 1.523 0 2.305 1.152 2.305 2.9v4.251h-1.643v-4.08c0-1.152-.451-1.682-1.285-1.682-1.047 0-1.51.808-1.51 1.92v3.841h-1.656v-4.106c0-1.125-.449-1.655-1.271-1.655-.953 0-1.521.781-1.521 1.894v3.868h-1.643v-7.02ZM1121.455 152.631c0-2.225 1.363-3.655 3.391-3.655 2 0 3.219 1.271 3.219 3.179 0 .265-.027.609-.066.834h-4.9c-.027 1.285.676 1.987 1.762 1.987.848 0 1.457-.424 1.615-1.02h1.629c-.238 1.378-1.523 2.305-3.232 2.305-2.039 0-3.416-1.43-3.416-3.629Zm4.967-.768c-.014-1.02-.609-1.616-1.615-1.616-.994 0-1.656.649-1.695 1.616zM1129.549 149.108h1.43l.213 1.364h.078c.371-1.02 1.166-1.483 2.213-1.483v1.443c-1.562 0-2.291.954-2.291 2.596v3.099h-1.643v-7.02ZM1136.992 155.055c.795 0 1.246-.344 1.246-.901 0-.596-.477-.728-.809-.781l-1.363-.251c-1.432-.252-1.975-.994-1.975-1.947 0-1.404 1.113-2.198 2.809-2.198 1.762 0 2.807.874 2.834 2.185h-1.604c-.025-.675-.502-.993-1.244-.993s-1.152.331-1.152.848c0 .649.637.755 1.006.808l1.285.225c1.377.226 1.908.994 1.908 2 0 1.377-1.18 2.212-2.955 2.212-1.92 0-3.006-.954-3.006-2.305h1.604c0 .702.543 1.1 1.416 1.1ZM1148.492 146.353c2.887 0 4.621 2 4.621 4.94 0 3.086-1.84 4.967-4.621 4.967-2.889 0-4.609-2.013-4.609-4.953 0-3.073 1.84-4.954 4.609-4.954m0 8.358c1.76 0 2.793-1.364 2.793-3.404 0-2.106-1.111-3.417-2.793-3.417-1.736 0-2.781 1.364-2.781 3.404 0 2.133 1.098 3.417 2.781 3.417M1160.93 156.128h-1.43l-.213-1.285h-.119c-.396.861-1.205 1.417-2.316 1.417-1.523 0-2.346-1.033-2.346-2.729v-4.423h1.656v4.185c0 1.073.49 1.589 1.363 1.589 1.086 0 1.762-.861 1.762-2.079v-3.695h1.643zM1163.09 149.108v-1.894l1.656-.636v2.53h1.523v1.337h-1.523v3.444c0 .556.131 1.006.887 1.006.213 0 .504-.04.637-.079v1.311c-.398.08-.717.106-1.088.106-1.734 0-2.092-1.02-2.092-2.159v-3.629h-1.152v-1.337z"/></g><g fill="#fafafa" opacity=".7"><path d="M1057.51 139.953c-2.756 0-4.57-1.986-4.57-4.953s1.828-4.954 4.57-4.954c2.264 0 3.934 1.285 4.225 3.311h-1.496c-.305-1.271-1.352-2.026-2.729-2.026-1.869 0-3.047 1.43-3.047 3.669 0 2.265 1.178 3.668 3.02 3.668 1.523 0 2.49-.821 2.756-2.066h1.496c-.266 2.04-1.961 3.351-4.225 3.351M1069.443 139.821h-1.178l-.186-1.285h-.105c-.398.861-1.232 1.417-2.346 1.417-1.455 0-2.316-.98-2.316-2.675v-4.424h1.377v4.225c0 1.152.529 1.695 1.471 1.695 1.178 0 1.92-.927 1.92-2.265v-3.656h1.363v6.967ZM1071.5 132.854h1.191l.172 1.391h.08c.383-1.02 1.205-1.497 2.238-1.497v1.219c-1.562.013-2.318.98-2.318 2.702v3.152h-1.363zM1076.4 132.854h1.191l.172 1.391h.08c.385-1.02 1.205-1.497 2.238-1.497v1.219c-1.562.013-2.318.98-2.318 2.702v3.152h-1.363zM1080.494 136.364c0-2.211 1.324-3.642 3.311-3.642 1.973 0 3.139 1.258 3.139 3.152 0 .238-.025.543-.066.768h-5.006c-.027 1.43.756 2.212 1.961 2.212.939 0 1.615-.477 1.787-1.166h1.365c-.238 1.351-1.484 2.265-3.166 2.265-1.986 0-3.324-1.417-3.324-3.589Zm5.072-.702c0-1.179-.662-1.841-1.787-1.841-1.113 0-1.855.729-1.895 1.841zM1088.588 132.854h1.191l.186 1.298h.094c.424-.901 1.285-1.431 2.33-1.431 1.551 0 2.41 1.126 2.41 2.848v4.251h-1.377v-4.119c0-1.218-.557-1.788-1.549-1.788-1.166 0-1.922.914-1.922 2.251v3.656h-1.363v-6.967ZM1096.959 132.854v-2l1.379-.53v2.53h1.535v1.139h-1.535v3.735c0 .517.092 1.046.926 1.046.227 0 .49-.026.609-.066v1.113c-.344.08-.635.106-.967.106-1.535 0-1.947-.914-1.947-2.053v-3.881h-1.164v-1.139zM1108.418 130.046c2.809 0 4.557 2 4.557 4.94 0 3.046-1.814 4.967-4.557 4.967-2.82 0-4.555-2.026-4.555-4.953 0-3.02 1.826-4.954 4.555-4.954m0 8.596c1.895 0 3.047-1.457 3.047-3.642 0-2.239-1.205-3.669-3.047-3.669-1.867 0-3.033 1.457-3.033 3.655 0 2.252 1.193 3.656 3.033 3.656M1120.645 139.821h-1.18l-.184-1.285h-.107c-.396.861-1.23 1.417-2.344 1.417-1.457 0-2.318-.98-2.318-2.675v-4.424h1.379v4.225c0 1.152.529 1.695 1.469 1.695 1.18 0 1.922-.927 1.922-2.265v-3.656h1.363v6.967ZM1122.951 132.854v-2l1.377-.53v2.53h1.537v1.139h-1.537v3.735c0 .517.094 1.046.928 1.046.225 0 .49-.026.609-.066v1.113c-.346.08-.637.106-.967.106-1.537 0-1.947-.914-1.947-2.053v-3.881h-1.166v-1.139zM1129.574 135.662h1.789v-.49c0-.967-.596-1.364-1.457-1.364-.889 0-1.457.45-1.496 1.126h-1.326c.107-1.351 1.26-2.212 2.875-2.212 1.842 0 2.754.993 2.754 2.53v3.06c0 .265.041.517.412.517a1 1 0 0 0 .238-.027v1.007c-.227.066-.49.106-.689.106-.781 0-1.219-.411-1.232-1.219h-.092c-.291.769-1.191 1.258-2.266 1.258-1.377 0-2.291-.821-2.291-2.04 0-1.47 1.113-2.251 2.781-2.251Zm-.119 3.192c1.166 0 1.908-.795 1.908-1.92v-.331h-1.643c-1.072 0-1.537.463-1.537 1.152 0 .715.504 1.099 1.271 1.099ZM1135.43 139.212v-.093a1.02 1.02 0 0 1-.715-.98c0-.569.383-1.006.939-1.179v-.093c-.648-.384-1.006-1.06-1.006-1.841 0-1.391 1.1-2.305 2.676-2.305.463 0 .939.093 1.258.265.266-.768 1.059-1.285 2.08-1.285v1.1c-.623 0-1.141.265-1.285.636.438.397.688.98.688 1.629 0 1.364-1.059 2.265-2.648 2.265-.318 0-.648-.027-.914-.093-.344.066-.529.291-.529.583 0 .543.57.57.9.57h1.775c1.377 0 2.145.688 2.145 1.788 0 1.431-1.35 2.066-3.443 2.066-2.053 0-2.967-.675-2.967-1.682 0-.662.424-1.179 1.047-1.351Zm1.986 2.026c1.432 0 2.014-.371 2.014-1.006 0-.742-.781-.742-.953-.742h-1.803c-.701 0-1.045.331-1.045.834 0 .623.568.914 1.787.914m-.066-4.874c.875 0 1.365-.53 1.365-1.324 0-.848-.543-1.338-1.365-1.338-.848 0-1.35.543-1.35 1.338 0 .848.543 1.324 1.35 1.324M1141.498 136.364c0-2.211 1.324-3.642 3.311-3.642 1.973 0 3.139 1.258 3.139 3.152 0 .238-.025.543-.066.768h-5.006c-.027 1.43.756 2.212 1.961 2.212.939 0 1.615-.477 1.787-1.166h1.365c-.238 1.351-1.484 2.265-3.166 2.265-1.986 0-3.324-1.417-3.324-3.589Zm5.072-.702c0-1.179-.662-1.841-1.787-1.841-1.113 0-1.855.729-1.895 1.841zM1151.977 138.92c.9 0 1.416-.397 1.416-1.046 0-.663-.529-.808-.873-.875l-1.418-.265c-1.377-.251-1.906-.967-1.906-1.881 0-1.351 1.072-2.132 2.701-2.132 1.709 0 2.701.874 2.729 2.146h-1.324c-.027-.768-.57-1.112-1.418-1.112s-1.311.371-1.311.967c0 .729.688.848 1.059.9l1.324.239c1.338.238 1.855.967 1.855 1.96 0 1.311-1.127 2.132-2.834 2.132-1.842 0-2.914-.927-2.914-2.265h1.338c0 .768.596 1.231 1.576 1.231Z"/></g><path fill="#fab360" d="m1010.132 153.565-12.02-20.761c-.915-1.58-3.195-1.58-4.11 0l-12.02 20.761c-.916 1.583.226 3.564 2.055 3.564h24.039c1.829 0 2.971-1.981 2.055-3.564Zm-12.503-.767h-3.143v-2.91h3.143zm0-4.619h-3.143v-7.858h3.143z"/><rect width="300.835" height="86.064" x="1265.332" y="101.239" fill="#fafafa" opacity=".07" rx="6" ry="6"/><g fill="#fafafa"><path d="M1304.421 148.302c0 5.327-3.686 9.011-9.158 9.011-5.181 0-8.792-3.393-8.72-8.428h3.831c-.072 2.882 1.861 5.071 4.926 5.071 3.101 0 5.181-2.189 5.181-5.509s-2.007-5.692-5.218-5.692c-2.152 0-4.013 1.095-4.633 2.554h-3.575l.583-14.667h15.396v3.32h-12.04l-.364 7.333.183.036c1.058-1.094 3.174-1.824 5.181-1.824 4.961 0 8.428 3.648 8.428 8.793ZM1327.516 148.192v3.174h-3.174v5.582h-3.758v-5.582h-12.732v-3.138l10.908-17.585h5.582v17.548h3.174Zm-6.932 0v-14.301l-8.793 14.301zM1340.213 137.758h3.247l.511 3.575h.292c1.168-2.626 3.174-3.94 5.801-3.94 2.772 0 4.743 1.715 5.582 4.123h.292c1.167-2.773 3.575-4.123 6.238-4.123 4.087 0 6.349 3.028 6.349 7.844v11.711h-3.758v-11.347c0-3.356-1.387-4.925-3.903-4.925-3.175 0-4.598 2.481-4.598 5.947v10.325h-3.794v-11.347c0-3.356-1.35-4.925-3.831-4.925-2.882 0-4.67 2.445-4.67 5.911v10.361h-3.758zM1374.181 130.389h3.722v4.487h-3.722zm0 7.369h3.722v19.19h-3.722zM1383.813 137.758h3.283l.511 3.575h.256c1.167-2.481 3.539-3.94 6.421-3.94 4.269 0 6.641 3.101 6.641 7.844v11.711h-3.795v-11.347c0-3.356-1.532-4.925-4.269-4.925-3.21 0-5.29 2.518-5.29 6.203v10.069h-3.758z"/></g><g fill="#fafafa"><path d="M1422.695 152.962c0 1.96-1.364 3.298-3.417 3.298-1.974 0-3.324-1.245-3.298-3.086h1.669c-.014.94.622 1.629 1.643 1.629s1.708-.715 1.708-1.788c0-1.086-.675-1.868-1.734-1.868-.742 0-1.338.384-1.537.887h-1.562l.226-5.457h5.734v1.443h-4.278l-.105 2.305.066.026c.37-.357 1.099-.596 1.788-.596 1.854 0 3.099 1.338 3.099 3.205ZM1426.472 146.366c1.431 0 2.384.98 2.384 2.397 0 1.43-.967 2.423-2.384 2.423-1.377 0-2.357-.993-2.357-2.437 0-1.404.953-2.384 2.357-2.384Zm0 3.788c.742 0 1.231-.583 1.231-1.404 0-.808-.503-1.364-1.231-1.364-.702 0-1.205.557-1.205 1.364 0 .821.49 1.404 1.205 1.404m5.483-3.682h1.007l-6.133 9.655h-.993zm.212 4.954c1.431 0 2.357 1.006 2.357 2.424s-.953 2.41-2.357 2.41c-1.391 0-2.371-.98-2.371-2.424 0-1.404.954-2.41 2.371-2.41m0 3.801c.729 0 1.219-.583 1.219-1.404 0-.808-.504-1.377-1.219-1.377s-1.219.57-1.219 1.377c0 .821.504 1.404 1.219 1.404M1439.137 152.909v-1.245l5.165-2.808v1.643l-1.788.861-1.934.887v.12l1.974.914 1.748.887v1.656l-5.165-2.914ZM1455.694 148.008h-2.808v8.119h-1.735v-8.119h-2.795v-1.536h7.338zM1457.696 151.929h1.722v-.463c0-.848-.517-1.205-1.298-1.205-.795 0-1.298.411-1.338 1.02h-1.603c.119-1.43 1.324-2.304 3.007-2.304 1.92 0 2.86 1.006 2.86 2.569v2.927c0 .265.066.49.384.49.093 0 .186-.013.239-.026v1.179a3.8 3.8 0 0 1-.821.106c-.848 0-1.312-.411-1.338-1.192h-.093c-.278.755-1.166 1.231-2.226 1.231-1.391 0-2.304-.821-2.304-2.053 0-1.47 1.125-2.278 2.808-2.278Zm.013 3.046c1.047 0 1.709-.702 1.709-1.695v-.305h-1.497c-.967 0-1.377.437-1.377 1.033 0 .636.464.967 1.165.967M1463.035 149.108h1.431l.212 1.364h.079c.371-1.02 1.166-1.483 2.212-1.483v1.443c-1.562 0-2.291.954-2.291 2.596v3.099h-1.643v-7.02ZM1468.492 155.571v-.106a1.08 1.08 0 0 1-.741-1.02c0-.583.384-1.033.993-1.218v-.093c-.676-.397-1.047-1.073-1.047-1.854 0-1.391 1.14-2.304 2.769-2.304.424 0 .888.079 1.205.225.278-.821 1.126-1.377 2.212-1.377v1.285c-.609 0-1.126.238-1.271.569.477.424.729 1.007.729 1.656 0 1.364-1.1 2.278-2.729 2.278-.331 0-.649-.04-.9-.093-.305.066-.464.278-.464.53 0 .49.53.53.888.53h1.695c1.443 0 2.238.729 2.238 1.881 0 1.497-1.417 2.146-3.59 2.146-2.092 0-3.046-.688-3.046-1.695 0-.662.424-1.179 1.06-1.337Zm2.067 1.841c1.312 0 1.881-.305 1.881-.887 0-.649-.676-.649-.848-.649h-1.709c-.622 0-.94.278-.94.729 0 .556.504.808 1.616.808Zm-.04-4.94c.769 0 1.219-.477 1.219-1.179 0-.742-.49-1.179-1.219-1.179-.755 0-1.205.477-1.205 1.179 0 .742.49 1.179 1.205 1.179M1474.586 152.631c0-2.225 1.364-3.655 3.391-3.655 2 0 3.219 1.271 3.219 3.179 0 .265-.026.609-.066.834h-4.9c-.026 1.285.676 1.987 1.762 1.987.848 0 1.457-.424 1.615-1.02h1.63c-.238 1.378-1.523 2.305-3.232 2.305-2.039 0-3.417-1.43-3.417-3.629Zm4.967-.768c-.013-1.02-.609-1.616-1.615-1.616-.994 0-1.656.649-1.695 1.616zM1482.999 149.108v-1.894l1.655-.636v2.53h1.523v1.337h-1.523v3.444c0 .556.132 1.006.888 1.006.212 0 .503-.04.636-.079v1.311c-.397.08-.716.106-1.087.106-1.734 0-2.092-1.02-2.092-2.159v-3.629h-1.152v-1.337z"/></g><g fill="#fafafa" opacity=".7"><path d="M1420.444 139.953c-2.755 0-4.569-1.986-4.569-4.953s1.827-4.954 4.569-4.954c2.265 0 3.934 1.285 4.225 3.311h-1.496c-.305-1.271-1.352-2.026-2.729-2.026-1.868 0-3.047 1.43-3.047 3.669 0 2.265 1.179 3.668 3.021 3.668 1.522 0 2.489-.821 2.755-2.066h1.496c-.265 2.04-1.96 3.351-4.225 3.351M1431.532 137.702h-4.278l-.769 2.119h-1.496l3.576-9.655h1.668l3.63 9.655h-1.563zm-.424-1.166-.543-1.51-1.113-3.377h-.066l-1.152 3.377-.556 1.51zM1434.91 139.821v-9.655h1.444v9.655zM1438.871 130.166h3.775c2.768 0 4.317 1.96 4.317 4.834s-1.562 4.821-4.317 4.821h-3.775zm3.63 8.37c1.827 0 2.953-1.258 2.953-3.55 0-2.384-1.205-3.536-2.953-3.536h-2.186v7.086zM1448.78 139.821v-9.655h1.444v9.655z"/></g><rect width="300.835" height="86.064" x="353.833" y="101.239" fill="#fafafa" opacity=".07" rx="6" ry="6"/><g fill="#fafafa"><path d="M377.229 135.241h.876c3.539 0 5.874-1.714 6.275-4.597h3.502v26.305h-3.758v-18.826h-6.896v-2.882ZM394.194 135.241h.876c3.539 0 5.874-1.714 6.275-4.597h3.502v26.305h-3.758v-18.826h-6.896v-2.882ZM411.16 135.241h.876c3.539 0 5.874-1.714 6.275-4.597h3.502v26.305h-3.758v-18.826h-6.896v-2.882ZM427.943 160.305c2.263 0 2.736-1.313 2.736-2.59v-.766h-2.335v-4.707h4.415v5.473c0 2.7-1.934 4.269-4.816 4.269v-1.678ZM435.35 130.644h17.658v2.7c-4.779 6.677-8.902 15.834-10.289 23.605h-4.086c1.24-7.37 5.145-16.235 9.814-22.985h-9.96v4.707h-3.138zM455.891 135.241h.876c3.539 0 5.874-1.714 6.275-4.597h3.502v26.305h-3.758v-18.826h-6.896v-2.882ZM473.477 143.851c0-8.209 2.846-13.536 9.596-13.536 4.743 0 7.808 2.59 8.245 6.713h-3.867c-.365-2.445-2.299-3.43-4.415-3.43-4.305 0-5.837 3.867-5.545 9.595h.183c1.167-2.372 3.429-3.466 6.056-3.466 4.67 0 7.99 3.429 7.99 8.646 0 5.29-3.43 8.938-8.902 8.938-6.749 0-9.34-5.618-9.34-13.462Zm14.338 4.524c0-3.429-1.971-5.436-4.853-5.436-3.247 0-4.926 2.59-4.926 5.545 0 3.32 1.971 5.473 4.926 5.473s4.853-2.189 4.853-5.582"/></g><g fill="#fafafa" opacity=".7"><path d="M508.438 157.081c-2.755 0-4.569-1.986-4.569-4.953s1.827-4.954 4.569-4.954c2.265 0 3.934 1.285 4.225 3.311h-1.496c-.305-1.271-1.352-2.026-2.729-2.026-1.868 0-3.047 1.43-3.047 3.669 0 2.265 1.179 3.668 3.021 3.668 1.522 0 2.489-.821 2.755-2.066h1.496c-.265 2.04-1.96 3.351-4.225 3.351M520.373 156.949h-1.179l-.185-1.285h-.106c-.397.861-1.231 1.417-2.345 1.417-1.456 0-2.317-.98-2.317-2.675v-4.424h1.378v4.225c0 1.152.529 1.695 1.47 1.695 1.179 0 1.921-.927 1.921-2.265v-3.656h1.363v6.967ZM524.812 156.048c.9 0 1.417-.397 1.417-1.046 0-.663-.53-.808-.874-.875l-1.417-.265c-1.378-.251-1.907-.967-1.907-1.881 0-1.351 1.072-2.132 2.701-2.132 1.709 0 2.702.874 2.729 2.146h-1.324c-.026-.768-.569-1.112-1.417-1.112s-1.312.371-1.312.967c0 .729.688.848 1.06.9l1.324.239c1.338.238 1.854.967 1.854 1.96 0 1.311-1.126 2.132-2.834 2.132-1.841 0-2.914-.927-2.914-2.265h1.338c0 .768.596 1.231 1.576 1.231ZM529.488 149.982v-2l1.378-.53v2.53h1.536v1.139h-1.536v3.735c0 .517.093 1.046.927 1.046.226 0 .49-.026.609-.066v1.113c-.345.08-.636.106-.967.106-1.536 0-1.947-.914-1.947-2.053v-3.881h-1.165v-1.139zM536.642 149.85c2.026 0 3.377 1.483 3.377 3.629 0 2.132-1.351 3.603-3.377 3.603s-3.378-1.47-3.378-3.589c0-2.146 1.351-3.642 3.378-3.642Zm0 6.039c1.205 0 1.973-.914 1.973-2.424 0-1.457-.715-2.424-1.973-2.424-1.219 0-1.987.927-1.987 2.437 0 1.457.729 2.411 1.987 2.411M541.624 149.982h1.179l.186 1.298h.105c.424-.954 1.152-1.431 2.105-1.431 1.007 0 1.723.623 2.027 1.497h.105c.424-1.006 1.298-1.497 2.265-1.497 1.483 0 2.305 1.099 2.305 2.848v4.251h-1.364v-4.119c0-1.218-.503-1.788-1.417-1.788-1.152 0-1.669.901-1.669 2.159v3.748h-1.377v-4.119c0-1.218-.49-1.788-1.391-1.788-1.047 0-1.695.888-1.695 2.146v3.761h-1.364v-6.967ZM553.426 153.492c0-2.211 1.324-3.642 3.312-3.642 1.973 0 3.139 1.258 3.139 3.152 0 .238-.026.543-.066.768h-5.006c-.027 1.43.755 2.212 1.96 2.212.94 0 1.615-.477 1.788-1.166h1.364c-.238 1.351-1.483 2.265-3.166 2.265-1.986 0-3.324-1.417-3.324-3.589Zm5.074-.702c0-1.179-.663-1.841-1.788-1.841-1.113 0-1.854.729-1.895 1.841zM561.521 149.982h1.191l.172 1.391h.08c.384-1.02 1.205-1.497 2.238-1.497v1.219c-1.562.013-2.318.98-2.318 2.702v3.152h-1.363zM568.621 156.048c.9 0 1.417-.397 1.417-1.046 0-.663-.53-.808-.874-.875l-1.417-.265c-1.378-.251-1.907-.967-1.907-1.881 0-1.351 1.072-2.132 2.701-2.132 1.709 0 2.702.874 2.729 2.146h-1.324c-.026-.768-.569-1.112-1.417-1.112s-1.312.371-1.312.967c0 .729.688.848 1.06.9l1.324.239c1.338.238 1.854.967 1.854 1.96 0 1.311-1.126 2.132-2.834 2.132-1.841 0-2.914-.927-2.914-2.265h1.338c0 .768.596 1.231 1.576 1.231Z"/></g><rect width="300.835" height="86.064" x="1569.165" y="101.239" fill="#fafafa" opacity=".07" rx="6" ry="6"/><g fill="#fafafa" opacity=".7"><path d="M1772.002 157.081c-2.755 0-4.569-1.986-4.569-4.953s1.827-4.954 4.569-4.954c2.265 0 3.934 1.285 4.225 3.311h-1.496c-.305-1.271-1.352-2.026-2.729-2.026-1.868 0-3.047 1.43-3.047 3.669 0 2.265 1.179 3.668 3.021 3.668 1.522 0 2.489-.821 2.755-2.066h1.496c-.265 2.04-1.96 3.351-4.225 3.351M1778.096 147.294h1.881l2.861 6.569h.079l2.874-6.569h1.868v9.655h-1.404v-4.927l.105-2.794h-.079l-3.391 7.549-3.403-7.549h-.093l.119 2.808v4.914h-1.418zM1790.177 156.949v-9.655h1.444v9.655z"/></g><g fill="#fafafa"><path d="M1594.062 143.961v-.292c-2.408-1.094-3.831-3.502-3.831-6.166 0-4.196 3.575-7.151 8.902-7.151 5.29 0 8.901 2.919 8.901 7.151 0 2.663-1.423 5.035-3.794 6.166v.292c2.408 1.167 3.794 3.502 3.794 6.202 0 4.232-3.611 7.151-8.938 7.151-5.29 0-8.865-2.955-8.865-7.151 0-2.772 1.387-5.035 3.831-6.202m5.034-1.679c3.175 0 4.999-1.788 4.999-4.305 0-2.7-2.007-4.305-4.999-4.305-3.101 0-4.925 1.751-4.925 4.305 0 2.7 2.043 4.305 4.925 4.305m0 11.675c3.211 0 4.999-1.751 4.999-4.305 0-2.663-2.007-4.305-4.999-4.305-3.138 0-4.925 1.824-4.925 4.305 0 2.773 2.079 4.305 4.925 4.305M1611.428 160.305c2.263 0 2.736-1.313 2.736-2.59v-.766h-2.335v-4.707h4.415v5.473c0 2.7-1.934 4.269-4.816 4.269v-1.678ZM1637.04 153.592v3.356h-17.439v-.912c0-5.947 4.306-8.574 8.574-11.565 2.48-1.788 4.597-3.502 4.597-6.458 0-2.773-1.824-4.342-4.523-4.342-3.028 0-4.743 1.897-4.561 4.925h-3.795c-.146-4.961 3.356-8.282 8.574-8.282 4.962 0 8.245 3.138 8.245 7.662 0 4.086-2.627 6.567-5.728 8.829-3.028 2.189-6.567 4.196-7.261 7.042a63 63 0 0 1 5.29-.255zM1641.128 150.637h3.831c.328 2.152 2.043 3.393 4.487 3.393 4.086 0 5.801-3.576 5.437-9.596h-.183c-1.204 2.262-3.394 3.43-6.093 3.43-4.707 0-7.99-3.43-7.99-8.646 0-5.254 3.43-8.902 8.865-8.902 6.786 0 9.377 5.728 9.377 13.754 0 9.376-3.284 13.244-9.596 13.244-4.487 0-7.698-2.7-8.136-6.676Zm13.207-11.528c0-3.247-1.97-5.437-4.962-5.437s-4.853 2.153-4.853 5.546c0 3.466 1.971 5.436 4.853 5.436 3.247 0 4.962-2.59 4.962-5.545M1681.953 148.192v3.174h-3.174v5.582h-3.758v-5.582h-12.732v-3.138l10.908-17.585h5.582v17.548h3.174Zm-6.932 0v-14.301l-8.793 14.301zM1694.651 137.758h3.247l.511 3.575h.292c1.167-2.626 3.174-3.94 5.801-3.94 2.772 0 4.743 1.715 5.582 4.123h.292c1.168-2.773 3.575-4.123 6.238-4.123 4.087 0 6.349 3.028 6.349 7.844v11.711h-3.758v-11.347c0-3.356-1.387-4.925-3.903-4.925-3.175 0-4.598 2.481-4.598 5.947v10.325h-3.794v-11.347c0-3.356-1.35-4.925-3.831-4.925-2.882 0-4.67 2.445-4.67 5.911v10.361h-3.758zM1728.619 130.389h3.722v4.487h-3.722zm0 7.369h3.722v19.19h-3.722zM1738.251 137.758h3.283l.511 3.575h.256c1.167-2.481 3.539-3.94 6.421-3.94 4.269 0 6.641 3.101 6.641 7.844v11.711h-3.795v-11.347c0-3.356-1.532-4.925-4.269-4.925-3.21 0-5.29 2.518-5.29 6.203v10.069h-3.758z"/></g><rect width="300.835" height="86.064" x="657.666" y="101.239" fill="#fafafa" opacity=".07" rx="6" ry="6"/><g fill="#fafafa"><path d="M748.847 153.592v3.356h-17.439v-.912c0-5.947 4.306-8.574 8.574-11.565 2.48-1.788 4.597-3.502 4.597-6.458 0-2.773-1.824-4.342-4.523-4.342-3.028 0-4.743 1.897-4.561 4.925H731.7c-.146-4.961 3.356-8.282 8.574-8.282 4.962 0 8.245 3.138 8.245 7.662 0 4.086-2.627 6.567-5.728 8.829-3.028 2.189-6.567 4.196-7.261 7.042a63 63 0 0 1 5.29-.255h8.026ZM770.446 148.302c0 5.327-3.686 9.011-9.158 9.011-5.181 0-8.792-3.393-8.72-8.428h3.831c-.072 2.882 1.861 5.071 4.926 5.071 3.101 0 5.181-2.189 5.181-5.509s-2.007-5.692-5.218-5.692c-2.152 0-4.013 1.095-4.633 2.554h-3.575l.583-14.667h15.396v3.32h-12.04l-.364 7.333.183.036c1.058-1.094 3.174-1.824 5.181-1.824 4.961 0 8.428 3.648 8.428 8.793Z"/></g><g fill="#fafafa"><path d="M782.241 148.26h.345c1.271 0 2.132-.636 2.265-1.682h1.536v9.549h-1.643v-6.623h-2.503zM789.938 151.412v-.105c-.861-.397-1.364-1.245-1.364-2.226 0-1.536 1.338-2.609 3.351-2.609 1.987 0 3.324 1.06 3.324 2.609 0 .967-.503 1.815-1.363 2.226v.105c.874.411 1.363 1.245 1.363 2.226 0 1.562-1.337 2.622-3.337 2.622s-3.338-1.073-3.338-2.622c0-1.007.49-1.815 1.364-2.226m1.973-.728c1.046 0 1.642-.57 1.642-1.391 0-.874-.662-1.391-1.642-1.391-1.033 0-1.643.557-1.643 1.391 0 .875.676 1.391 1.643 1.391m0 4.133c1.046 0 1.642-.57 1.642-1.391 0-.875-.662-1.404-1.642-1.404-1.047 0-1.643.583-1.643 1.404 0 .9.688 1.391 1.643 1.391M805.383 154.194h-4.053l-.688 1.934h-1.801l3.51-9.655h2.013l3.59 9.655h-1.895zm-.477-1.364-.463-1.338-1.021-3.218h-.079l-1.06 3.218-.477 1.338zM811.397 155.055c.795 0 1.245-.344 1.245-.901 0-.596-.477-.728-.808-.781l-1.364-.251c-1.431-.252-1.974-.994-1.974-1.947 0-1.404 1.112-2.198 2.808-2.198 1.762 0 2.808.874 2.834 2.185h-1.603c-.026-.675-.503-.993-1.244-.993s-1.152.331-1.152.848c0 .649.636.755 1.006.808l1.285.225c1.377.226 1.907.994 1.907 2 0 1.377-1.179 2.212-2.953 2.212-1.921 0-3.007-.954-3.007-2.305h1.603c0 .702.543 1.1 1.417 1.1ZM818.339 155.055c.795 0 1.245-.344 1.245-.901 0-.596-.477-.728-.808-.781l-1.364-.251c-1.431-.252-1.974-.994-1.974-1.947 0-1.404 1.112-2.198 2.808-2.198 1.762 0 2.808.874 2.834 2.185h-1.603c-.026-.675-.503-.993-1.244-.993s-1.152.331-1.152.848c0 .649.636.755 1.006.808l1.285.225c1.377.226 1.907.994 1.907 2 0 1.377-1.179 2.212-2.953 2.212-1.921 0-3.007-.954-3.007-2.305h1.603c0 .702.543 1.1 1.417 1.1ZM822.738 146.419h1.629v1.775h-1.629zm0 2.689h1.629v7.02h-1.629zM826.726 155.571v-.106a1.08 1.08 0 0 1-.741-1.02c0-.583.384-1.033.993-1.218v-.093c-.676-.397-1.047-1.073-1.047-1.854 0-1.391 1.14-2.304 2.769-2.304.424 0 .888.079 1.205.225.278-.821 1.126-1.377 2.212-1.377v1.285c-.609 0-1.126.238-1.271.569.477.424.729 1.007.729 1.656 0 1.364-1.1 2.278-2.729 2.278-.331 0-.649-.04-.9-.093-.305.066-.464.278-.464.53 0 .49.53.53.888.53h1.695c1.443 0 2.238.729 2.238 1.881 0 1.497-1.417 2.146-3.59 2.146-2.092 0-3.046-.688-3.046-1.695 0-.662.424-1.179 1.06-1.337Zm2.066 1.841c1.312 0 1.881-.305 1.881-.887 0-.649-.676-.649-.848-.649h-1.709c-.622 0-.94.278-.94.729 0 .556.504.808 1.616.808Zm-.04-4.94c.769 0 1.219-.477 1.219-1.179 0-.742-.49-1.179-1.219-1.179-.755 0-1.205.477-1.205 1.179 0 .742.49 1.179 1.205 1.179M833.587 149.108h1.443l.199 1.298h.105c.438-.914 1.285-1.43 2.331-1.43 1.603 0 2.424 1.165 2.424 2.9v4.251h-1.655v-4.08c0-1.152-.517-1.682-1.443-1.682-1.087 0-1.762.848-1.762 2.066v3.695h-1.643v-7.02ZM841.443 152.631c0-2.225 1.364-3.655 3.391-3.655 2 0 3.219 1.271 3.219 3.179 0 .265-.026.609-.066.834h-4.9c-.026 1.285.676 1.987 1.762 1.987.848 0 1.457-.424 1.615-1.02h1.63c-.239 1.378-1.523 2.305-3.232 2.305-2.039 0-3.417-1.43-3.417-3.629Zm4.967-.768c-.013-1.02-.609-1.616-1.615-1.616-.994 0-1.656.649-1.695 1.616zM854.756 156.128l-.198-1.245h-.093c-.385.875-1.312 1.377-2.371 1.377-1.788 0-2.914-1.391-2.914-3.603 0-2.278 1.179-3.682 2.928-3.682 1.205 0 2.013.636 2.357 1.497h.093v-4.132h1.655v9.788zm-.198-3.815c0-1.232-.795-1.947-1.868-1.947-1.205 0-1.827.9-1.827 2.291 0 1.47.715 2.225 1.801 2.225 1.152 0 1.895-.808 1.895-1.907z"/></g><g fill="#fafafa" opacity=".7"><path d="M786.851 139.953c-2.755 0-4.569-1.986-4.569-4.953s1.827-4.954 4.569-4.954c2.265 0 3.934 1.285 4.225 3.311h-1.496c-.305-1.271-1.352-2.026-2.729-2.026-1.868 0-3.047 1.43-3.047 3.669 0 2.265 1.179 3.668 3.021 3.668 1.522 0 2.489-.821 2.755-2.066h1.496c-.265 2.04-1.96 3.351-4.225 3.351M792.76 132.854h1.191l.172 1.391h.08c.384-1.02 1.205-1.497 2.238-1.497v1.219c-1.562.013-2.318.98-2.318 2.702v3.152h-1.363zM796.853 136.364c0-2.211 1.324-3.642 3.312-3.642 1.973 0 3.139 1.258 3.139 3.152 0 .238-.026.543-.066.768h-5.006c-.027 1.43.755 2.212 1.96 2.212.94 0 1.615-.477 1.788-1.166h1.364c-.238 1.351-1.483 2.265-3.166 2.265-1.986 0-3.324-1.417-3.324-3.589Zm5.073-.702c0-1.179-.663-1.841-1.788-1.841-1.113 0-1.854.729-1.895 1.841zM813.648 132.854l-1.895 6.967h-1.762l-.808-3.417-.41-1.841h-.08l-.384 1.841-.781 3.417h-1.748l-1.934-6.967h1.443l.874 3.497.45 2.106h.106l1.244-5.603h1.603l1.271 5.589h.093l.424-2.066.875-3.523h1.417ZM817.147 138.92c.9 0 1.417-.397 1.417-1.046 0-.663-.529-.808-.874-.875l-1.417-.265c-1.378-.251-1.907-.967-1.907-1.881 0-1.351 1.072-2.132 2.701-2.132 1.709 0 2.702.874 2.729 2.146h-1.324c-.026-.768-.569-1.112-1.417-1.112s-1.312.371-1.312.967c0 .729.688.848 1.06.9l1.324.239c1.338.238 1.854.967 1.854 1.96 0 1.311-1.126 2.132-2.834 2.132-1.841 0-2.914-.927-2.914-2.265h1.338c0 .768.596 1.231 1.576 1.231Z"/></g><g fill="#fafafa" opacity=".7"><path d="M698.553 140.752q-2.018 0-3.43-1.412-1.413-1.413-1.412-3.43 0-2.058 1.412-3.45c1.412-1.392 2.085-1.392 3.43-1.392q2.058 0 3.45 1.392c1.392 1.392 1.392 2.078 1.392 3.45q0 2.018-1.392 3.43t-3.45 1.412M695.939 142.366h5.229a4.933 4.933 0 0 1 4.931 4.931v9.289h-15.09v-9.289a4.933 4.933 0 0 1 4.931-4.931ZM710.096 142.854q-1.513 0-2.573-1.059-1.059-1.06-1.059-2.573 0-1.544 1.059-2.588c1.059-1.044 1.564-1.044 2.573-1.044q1.544 0 2.588 1.044c1.044 1.044 1.044 1.559 1.044 2.588q0 1.513-1.044 2.573-1.044 1.059-2.588 1.059M712.269 144.384h-3.921c-.27 0-.532.033-.785.088.384.865.601 1.82.601 2.826v9.289h7.804v-8.504a3.7 3.7 0 0 0-3.699-3.698ZM684.422 141.795q-1.044-1.06-1.044-2.573 0-1.544 1.044-2.588c1.044-1.044 1.559-1.044 2.588-1.044q1.513 0 2.573 1.044c1.06 1.044 1.059 1.559 1.059 2.588q0 1.513-1.059 2.573-1.06 1.059-2.573 1.059-1.544 0-2.588-1.059M684.837 144.384h3.921c.27 0 .532.033.785.088a6.95 6.95 0 0 0-.601 2.826v9.289h-7.804v-8.504a3.7 3.7 0 0 1 3.699-3.698Z"/></g><rect width="300.835" height="86.064" x="50" y="101.239" fill="#fafafa" opacity=".07" rx="6" ry="6"/><g fill="#fafafa"><path d="M72.232 143.851c0-8.209 2.846-13.536 9.596-13.536 4.743 0 7.808 2.59 8.245 6.713h-3.867c-.365-2.445-2.299-3.43-4.415-3.43-4.305 0-5.837 3.867-5.545 9.595h.183c1.167-2.372 3.429-3.466 6.056-3.466 4.67 0 7.99 3.429 7.99 8.646 0 5.29-3.43 8.938-8.902 8.938-6.749 0-9.34-5.618-9.34-13.462Zm14.339 4.524c0-3.429-1.971-5.436-4.853-5.436-3.247 0-4.926 2.59-4.926 5.545 0 3.32 1.971 5.473 4.926 5.473s4.853-2.189 4.853-5.582M111.818 153.592v3.356H94.379v-.912c0-5.947 4.306-8.574 8.574-11.565 2.48-1.788 4.597-3.502 4.597-6.458 0-2.773-1.824-4.342-4.523-4.342-3.028 0-4.743 1.897-4.561 4.925h-3.795c-.146-4.961 3.356-8.282 8.574-8.282 4.962 0 8.245 3.138 8.245 7.662 0 4.086-2.627 6.567-5.728 8.829-3.028 2.189-6.567 4.196-7.261 7.042a63 63 0 0 1 5.29-.255h8.026Z"/></g><g fill="#fafafa" opacity=".7"><path d="M126.963 157.081c-2.755 0-4.569-1.986-4.569-4.953s1.827-4.954 4.569-4.954c2.265 0 3.934 1.285 4.225 3.311h-1.496c-.305-1.271-1.352-2.026-2.729-2.026-1.868 0-3.047 1.43-3.047 3.669 0 2.265 1.179 3.668 3.021 3.668 1.522 0 2.489-.821 2.755-2.066h1.496c-.265 2.04-1.96 3.351-4.225 3.351M132.872 147.307h1.351v1.629h-1.351zm0 2.675h1.351v6.967h-1.351zM136.369 149.982h1.191l.172 1.391h.08c.384-1.02 1.205-1.497 2.238-1.497v1.219c-1.562.013-2.318.98-2.318 2.702v3.152h-1.363zM143.812 157.081c-2.026 0-3.351-1.43-3.351-3.603s1.312-3.629 3.391-3.629c1.655 0 2.888.98 3.033 2.477h-1.378c-.186-.887-.874-1.285-1.682-1.285-1.298 0-1.974.98-1.974 2.45 0 1.576.781 2.411 1.96 2.411.954 0 1.616-.556 1.723-1.377h1.391c-.133 1.55-1.391 2.556-3.113 2.556M154.504 156.949h-1.18l-.185-1.285h-.106c-.397.861-1.231 1.417-2.344 1.417-1.457 0-2.318-.98-2.318-2.675v-4.424h1.378v4.225c0 1.152.529 1.695 1.47 1.695 1.179 0 1.921-.927 1.921-2.265v-3.656h1.364v6.967ZM156.559 147.307h1.351v1.629h-1.351zm0 2.675h1.351v6.967h-1.351zM160.307 149.982v-2l1.378-.53v2.53h1.536v1.139h-1.536v3.735c0 .517.093 1.046.927 1.046.226 0 .49-.026.609-.066v1.113c-.345.08-.636.106-.967.106-1.536 0-1.947-.914-1.947-2.053v-3.881h-1.165v-1.139zM167.089 156.048c.9 0 1.417-.397 1.417-1.046 0-.663-.529-.808-.874-.875l-1.417-.265c-1.378-.251-1.907-.967-1.907-1.881 0-1.351 1.072-2.132 2.701-2.132 1.709 0 2.702.874 2.729 2.146h-1.324c-.026-.768-.569-1.112-1.417-1.112s-1.312.371-1.312.967c0 .729.688.848 1.06.9l1.324.239c1.338.238 1.854.967 1.854 1.96 0 1.311-1.126 2.132-2.834 2.132-1.841 0-2.914-.927-2.914-2.265h1.338c0 .768.596 1.231 1.576 1.231Z"/></g><rect width="604.668" height="817.697" x="50" y="212.303" fill="#fafafa" opacity=".07" rx="6" ry="6"/><g fill="#fafafa"><path d="M531.996 254.774h8.153v1.607h-6.347v3.479h5.551v1.525h-5.551v3.861h6.347v1.607h-8.153v-12.08ZM544.111 262.479l-2.883-4.341h1.855l2.021 3.198h.1l1.988-3.198h1.823l-2.817 4.309 2.95 4.408h-1.873l-2.104-3.215h-.1l-2.153 3.215h-1.807l2.999-4.375ZM551.985 258.137l.165 1.574h.116c.447-1.027 1.558-1.74 2.966-1.74 2.271 0 3.695 1.756 3.695 4.491 0 2.833-1.508 4.557-3.729 4.557-1.408 0-2.502-.696-2.933-1.773h-.116v4.375h-1.707v-11.484zm.165 4.856c0 1.508 1.061 2.552 2.535 2.552 1.607 0 2.486-1.243 2.486-3.082 0-1.972-.978-3-2.453-3-1.491 0-2.568 1.094-2.568 2.552zM560.935 254.657h1.69v12.196h-1.69zM568.758 257.972c2.535 0 4.226 1.855 4.226 4.54 0 2.668-1.69 4.507-4.226 4.507s-4.226-1.839-4.226-4.491c0-2.685 1.69-4.557 4.226-4.557Zm0 7.556c1.508 0 2.469-1.144 2.469-3.033 0-1.823-.895-3.032-2.469-3.032-1.524 0-2.486 1.16-2.486 3.049 0 1.823.912 3.016 2.486 3.016M574.99 258.137h1.492l.215 1.74h.1c.48-1.276 1.508-1.873 2.801-1.873v1.525c-1.956.017-2.9 1.226-2.9 3.38v3.944h-1.707v-8.716ZM580.113 262.528c0-2.767 1.657-4.557 4.143-4.557 2.469 0 3.928 1.574 3.928 3.944 0 .298-.033.679-.083.961h-6.265c-.032 1.79.945 2.768 2.453 2.768 1.177 0 2.021-.597 2.237-1.458h1.706c-.298 1.69-1.855 2.833-3.96 2.833-2.485 0-4.159-1.773-4.159-4.491m6.346-.878c0-1.475-.829-2.304-2.237-2.304-1.392 0-2.32.912-2.37 2.304z"/></g><g fill="none" stroke="#fafafa" stroke-miterlimit="10" stroke-width="1.627" opacity=".7"><path d="M600.894 261.264h16.104M610.006 254.272l6.992 6.992-6.992 6.991"/></g><g fill="#bdadff"><path d="M140.35 274.687h-7.298l-1.24 3.482h-3.244l6.32-17.386h3.625l6.464 17.386h-3.411zm-.859-2.456-.835-2.409-1.837-5.795h-.143l-1.908 5.795-.858 2.409zM151.943 278.407c-3.744 0-6.177-2.6-6.177-6.559 0-3.935 2.433-6.559 6.225-6.559 3.101 0 5.414 1.813 5.652 4.627h-2.957c-.286-1.479-1.407-2.123-2.743-2.123-2.099 0-3.172 1.622-3.172 4.078 0 2.695 1.265 4.055 3.148 4.055 1.574 0 2.623-.93 2.79-2.266h2.981c-.215 2.862-2.552 4.746-5.748 4.746ZM171.766 278.169h-2.957v-10.231h-5.056v6.153c0 .93.214 1.86 1.55 1.86.43 0 .906-.048 1.192-.144v2.361c-.596.119-1.335.191-1.932.191-3.148 0-3.792-1.836-3.792-3.888v-6.535h-2.075v-2.409h2.075v-3.411l2.981-1.145v4.555h8.013v12.64Zm0-17.481v3.196h-2.957v-3.196zM176.611 265.529l1.765 5.867 1.169 4.055h.144l1.121-4.031 1.765-5.891h3.22l-4.365 12.64h-3.625l-4.412-12.64h3.22ZM186.439 271.873c0-4.007 2.457-6.583 6.105-6.583 3.602 0 5.796 2.29 5.796 5.724a10 10 0 0 1-.119 1.502h-8.825c-.047 2.313 1.217 3.578 3.173 3.578 1.526 0 2.623-.763 2.909-1.836h2.934c-.43 2.48-2.743 4.149-5.819 4.149-3.673 0-6.153-2.576-6.153-6.535Zm8.944-1.384c-.023-1.836-1.097-2.91-2.909-2.91-1.789 0-2.981 1.169-3.053 2.91zM216.376 274.687h-7.298l-1.24 3.482h-3.244l6.32-17.386h3.625l6.464 17.386h-3.411zm-.858-2.456-.835-2.409-1.837-5.795h-.143l-1.908 5.795-.858 2.409zM223.558 277.168v-.191c-.811-.286-1.335-1.002-1.335-1.836 0-1.049.691-1.86 1.788-2.194v-.167c-1.216-.715-1.884-1.932-1.884-3.339 0-2.504 2.051-4.15 4.984-4.15.764 0 1.598.143 2.171.406.5-1.479 2.026-2.48 3.982-2.48v2.313c-1.097 0-2.027.429-2.29 1.025.859.763 1.312 1.812 1.312 2.981 0 2.456-1.979 4.102-4.913 4.102a8 8 0 0 1-1.622-.167c-.549.119-.835.5-.835.954 0 .882.954.954 1.599.954h3.053c2.6 0 4.03 1.312 4.03 3.387 0 2.695-2.552 3.864-6.463 3.864-3.769 0-5.485-1.24-5.485-3.053 0-1.192.763-2.123 1.907-2.409Zm3.72 3.315c2.361 0 3.387-.549 3.387-1.598 0-1.168-1.216-1.168-1.526-1.168h-3.076c-1.121 0-1.693.501-1.693 1.312 0 1.002.906 1.455 2.909 1.455Zm-.071-8.896c1.383 0 2.194-.858 2.194-2.123 0-1.335-.883-2.123-2.194-2.123-1.359 0-2.171.858-2.171 2.123 0 1.335.883 2.123 2.171 2.123M234.531 271.873c0-4.007 2.457-6.583 6.105-6.583 3.602 0 5.796 2.29 5.796 5.724a10 10 0 0 1-.119 1.502h-8.825c-.047 2.313 1.217 3.578 3.173 3.578 1.526 0 2.623-.763 2.909-1.836h2.934c-.43 2.48-2.743 4.149-5.819 4.149-3.673 0-6.153-2.576-6.153-6.535Zm8.944-1.384c-.023-1.836-1.097-2.91-2.909-2.91-1.789 0-2.981 1.169-3.053 2.91zM249.107 265.529h2.6l.357 2.337h.19c.787-1.646 2.313-2.576 4.198-2.576 2.886 0 4.364 2.099 4.364 5.223v7.656h-2.981v-7.346c0-2.075-.93-3.029-2.6-3.029-1.955 0-3.172 1.526-3.172 3.721v6.654h-2.957v-12.64ZM264.518 265.529v-3.411l2.981-1.145v4.555h2.742v2.409h-2.742v6.201c0 1.002.238 1.813 1.598 1.813.382 0 .906-.072 1.145-.144v2.361a9.4 9.4 0 0 1-1.955.191c-3.125 0-3.769-1.836-3.769-3.888v-6.535h-2.075v-2.409h2.075ZM277.279 276.237c1.431 0 2.241-.62 2.241-1.622 0-1.073-.858-1.312-1.454-1.407l-2.457-.454c-2.575-.453-3.554-1.789-3.554-3.506 0-2.528 2.004-3.959 5.057-3.959 3.172 0 5.056 1.574 5.104 3.936h-2.886c-.048-1.216-.906-1.789-2.242-1.789s-2.074.596-2.074 1.526c0 1.169 1.145 1.359 1.812 1.455l2.313.405c2.48.405 3.434 1.789 3.434 3.602 0 2.48-2.122 3.982-5.318 3.982-3.458 0-5.413-1.717-5.413-4.149h2.886c0 1.264.978 1.979 2.552 1.979Z"/></g><g fill="#fafafa" opacity=".7"><path d="M134.918 247.641h-4.885l-.877 2.419h-1.709l4.083-11.023h1.905l4.144 11.023h-1.784zm-.484-1.33-.62-1.724-1.27-3.856h-.076l-1.315 3.856-.635 1.724zM138.771 250.061v-11.023h1.648v11.023zM151.699 242.606c0 2.178-1.527 3.584-3.855 3.584l-2.903-.015v3.886h-1.648v-11.023h4.552c2.419 0 3.855 1.452 3.855 3.568Zm-1.738 0c0-1.966-1.755-2.056-2.329-2.056h-2.691v4.188h2.691c1.588 0 2.329-.832 2.329-2.132"/></g><rect width="39.666" height="39.666" x="75" y="239.049" fill="#fafafa" opacity=".07" rx="3.5" ry="3.5"/><path fill="#bdadff" d="M104.347 256.919h-8.046l1.654-9.572-11.582 13.498h8.043l-1.651 9.571z"/><path fill="#242931" d="M75 317.339h554.57v67.902a4.624 4.624 0 0 1-4.622 4.622H79.622A4.624 4.624 0 0 1 75 385.241z" opacity=".5"/><path fill="#826bef" d="M79.622 311.602h545.326a4.624 4.624 0 0 1 4.622 4.622v1.115H75v-1.115a4.624 4.624 0 0 1 4.622-4.622"/><circle cx="108.697" cy="352.299" r="12.094" fill="#bdadff"/><path fill="#242931" d="M114.6 351.009h-5.285l1.087-6.287-7.608 8.866h5.283l-1.084 6.287z"/><g fill="#fafafa"><path d="M145.12 345.266c4.027 0 6.535 2.869 6.535 7.086 0 4.37-2.603 7.124-6.535 7.124-4.047 0-6.535-2.907-6.535-7.105 0-4.331 2.622-7.105 6.535-7.105m0 12.329c2.717 0 4.369-2.089 4.369-5.224 0-3.21-1.729-5.262-4.369-5.262-2.679 0-4.351 2.09-4.351 5.243 0 3.229 1.71 5.243 4.351 5.243M162.656 359.286h-1.69l-.267-1.843h-.151c-.57 1.235-1.768 2.033-3.363 2.033-2.089 0-3.324-1.406-3.324-3.837v-6.345h1.976v6.06c0 1.653.76 2.432 2.108 2.432 1.691 0 2.755-1.33 2.755-3.249v-5.243h1.957zM165.964 349.294v-2.869l1.976-.76v3.628h2.204v1.634h-2.204v5.357c0 .741.134 1.5 1.33 1.5.323 0 .703-.038.874-.095v1.596a5.9 5.9 0 0 1-1.387.152c-2.204 0-2.793-1.311-2.793-2.944v-5.566h-1.672v-1.634h1.672ZM175.464 353.321h2.564v-.703c0-1.387-.854-1.957-2.09-1.957-1.272 0-2.09.646-2.146 1.615h-1.899c.151-1.938 1.805-3.173 4.122-3.173 2.641 0 3.951 1.425 3.951 3.628v4.389c0 .38.058.741.589.741.133 0 .285-.019.342-.038v1.444a3.8 3.8 0 0 1-.987.152c-1.121 0-1.748-.589-1.767-1.748h-.133c-.418 1.102-1.71 1.805-3.249 1.805-1.976 0-3.286-1.178-3.286-2.925 0-2.109 1.596-3.23 3.989-3.23m-.171 4.579c1.672 0 2.735-1.14 2.735-2.755v-.475h-2.355c-1.539 0-2.204.665-2.204 1.653 0 1.026.722 1.577 1.824 1.577M183.861 358.412v-.133a1.46 1.46 0 0 1-1.025-1.406c0-.817.551-1.444 1.349-1.691v-.133c-.931-.551-1.443-1.52-1.443-2.641 0-1.995 1.576-3.306 3.837-3.306.665 0 1.349.133 1.805.38.38-1.102 1.52-1.843 2.982-1.843v1.577c-.893 0-1.634.38-1.843.912.627.57.988 1.406.988 2.337 0 1.957-1.52 3.249-3.8 3.249-.456 0-.931-.038-1.311-.133-.494.095-.76.418-.76.836 0 .779.816.817 1.292.817h2.545c1.977 0 3.078.988 3.078 2.564 0 2.052-1.938 2.964-4.939 2.964-2.944 0-4.256-.969-4.256-2.413 0-.95.608-1.691 1.501-1.938Zm2.85 2.907c2.052 0 2.888-.532 2.888-1.444 0-1.064-1.121-1.064-1.367-1.064h-2.584c-1.007 0-1.501.475-1.501 1.197 0 .893.817 1.311 2.564 1.311m-.095-6.991c1.254 0 1.957-.76 1.957-1.899 0-1.216-.779-1.919-1.957-1.919-1.216 0-1.938.779-1.938 1.919 0 1.216.778 1.899 1.938 1.899M192.564 354.328c0-3.172 1.899-5.224 4.749-5.224 2.83 0 4.502 1.805 4.502 4.521 0 .342-.038.779-.095 1.102h-7.181c-.038 2.052 1.083 3.173 2.812 3.173 1.349 0 2.317-.684 2.564-1.672h1.957c-.343 1.938-2.128 3.249-4.541 3.249-2.85 0-4.768-2.033-4.768-5.148Zm7.276-1.007c0-1.69-.95-2.641-2.564-2.641-1.596 0-2.659 1.045-2.717 2.641zM208.771 345.437h2.697l4.104 9.423h.114l4.122-9.423h2.679v13.849h-2.014v-7.067l.152-4.008h-.114l-4.863 10.828-4.882-10.828h-.134l.172 4.027v7.048h-2.033zM229.024 353.321h2.564v-.703c0-1.387-.854-1.957-2.09-1.957-1.272 0-2.09.646-2.146 1.615h-1.899c.151-1.938 1.805-3.173 4.122-3.173 2.641 0 3.951 1.425 3.951 3.628v4.389c0 .38.058.741.589.741.133 0 .285-.019.342-.038v1.444a3.8 3.8 0 0 1-.987.152c-1.121 0-1.748-.589-1.767-1.748h-.133c-.418 1.102-1.71 1.805-3.249 1.805-1.976 0-3.286-1.178-3.286-2.925 0-2.109 1.596-3.23 3.989-3.23m-.17 4.579c1.672 0 2.735-1.14 2.735-2.755v-.475h-2.355c-1.539 0-2.204.665-2.204 1.653 0 1.026.722 1.577 1.824 1.577M236.645 349.294h1.709l.267 1.862h.133c.607-1.292 1.843-2.052 3.344-2.052 2.223 0 3.457 1.615 3.457 4.084v6.098h-1.976v-5.908c0-1.748-.798-2.564-2.223-2.564-1.672 0-2.755 1.311-2.755 3.229v5.243h-1.956v-9.993ZM251.673 353.321h2.564v-.703c0-1.387-.854-1.957-2.09-1.957-1.272 0-2.09.646-2.146 1.615h-1.899c.151-1.938 1.805-3.173 4.122-3.173 2.641 0 3.951 1.425 3.951 3.628v4.389c0 .38.058.741.589.741.133 0 .285-.019.342-.038v1.444a3.8 3.8 0 0 1-.987.152c-1.121 0-1.748-.589-1.767-1.748h-.133c-.418 1.102-1.71 1.805-3.249 1.805-1.976 0-3.286-1.178-3.286-2.925 0-2.109 1.596-3.23 3.989-3.23m-.171 4.579c1.672 0 2.735-1.14 2.735-2.755v-.475h-2.355c-1.539 0-2.204.665-2.204 1.653 0 1.026.722 1.577 1.824 1.577M260.07 358.412v-.133a1.46 1.46 0 0 1-1.025-1.406c0-.817.551-1.444 1.349-1.691v-.133c-.931-.551-1.443-1.52-1.443-2.641 0-1.995 1.576-3.306 3.837-3.306.665 0 1.349.133 1.805.38.38-1.102 1.52-1.843 2.982-1.843v1.577c-.893 0-1.634.38-1.843.912.627.57.988 1.406.988 2.337 0 1.957-1.52 3.249-3.8 3.249-.456 0-.931-.038-1.311-.133-.494.095-.76.418-.76.836 0 .779.816.817 1.292.817h2.545c1.977 0 3.078.988 3.078 2.564 0 2.052-1.938 2.964-4.939 2.964-2.944 0-4.256-.969-4.256-2.413 0-.95.608-1.691 1.501-1.938Zm2.85 2.907c2.052 0 2.888-.532 2.888-1.444 0-1.064-1.121-1.064-1.367-1.064h-2.584c-1.007 0-1.501.475-1.501 1.197 0 .893.817 1.311 2.564 1.311m-.095-6.991c1.254 0 1.957-.76 1.957-1.899 0-1.216-.779-1.919-1.957-1.919-1.216 0-1.938.779-1.938 1.919 0 1.216.778 1.899 1.938 1.899M268.773 354.328c0-3.172 1.899-5.224 4.749-5.224 2.83 0 4.502 1.805 4.502 4.521 0 .342-.038.779-.095 1.102h-7.181c-.038 2.052 1.083 3.173 2.812 3.173 1.349 0 2.317-.684 2.564-1.672h1.957c-.343 1.938-2.128 3.249-4.541 3.249-2.85 0-4.768-2.033-4.768-5.148Zm7.276-1.007c0-1.69-.95-2.641-2.564-2.641-1.596 0-2.659 1.045-2.717 2.641zM280.382 349.294h1.69l.266 1.862h.152c.608-1.368 1.652-2.052 3.021-2.052 1.443 0 2.47.893 2.906 2.147h.152c.607-1.444 1.861-2.147 3.248-2.147 2.128 0 3.306 1.577 3.306 4.084v6.098h-1.956v-5.908c0-1.748-.723-2.564-2.033-2.564-1.652 0-2.394 1.292-2.394 3.097v5.376h-1.976v-5.908c0-1.748-.703-2.564-1.995-2.564-1.5 0-2.432 1.273-2.432 3.078v5.395h-1.956v-9.993ZM297.312 354.328c0-3.172 1.899-5.224 4.749-5.224 2.83 0 4.502 1.805 4.502 4.521 0 .342-.038.779-.095 1.102h-7.181c-.038 2.052 1.083 3.173 2.812 3.173 1.349 0 2.317-.684 2.564-1.672h1.957c-.343 1.938-2.128 3.249-4.541 3.249-2.85 0-4.768-2.033-4.768-5.148Zm7.275-1.007c0-1.69-.95-2.641-2.564-2.641-1.596 0-2.659 1.045-2.717 2.641zM308.92 349.294h1.709l.267 1.862h.133c.607-1.292 1.843-2.052 3.344-2.052 2.223 0 3.457 1.615 3.457 4.084v6.098h-1.976v-5.908c0-1.748-.798-2.564-2.223-2.564-1.672 0-2.755 1.311-2.755 3.229v5.243h-1.956v-9.993ZM320.928 349.294v-2.869l1.976-.76v3.628h2.204v1.634h-2.204v5.357c0 .741.134 1.5 1.33 1.5.323 0 .703-.038.874-.095v1.596a5.9 5.9 0 0 1-1.387.152c-2.204 0-2.793-1.311-2.793-2.944v-5.566h-1.672v-1.634h1.672Z"/></g><g fill="#826bef"><circle cx="572.537" cy="352.299" r="2.954"/><circle cx="596.437" cy="352.299" r="2.954"/><circle cx="584.487" cy="352.299" r="3.536"/></g><path fill="#242931" d="M75 409.067h554.57v67.902a4.624 4.624 0 0 1-4.622 4.622H79.622A4.624 4.624 0 0 1 75 476.969z" opacity=".5"/><path fill="#826bef" d="M79.622 403.329h545.326a4.624 4.624 0 0 1 4.622 4.622v1.115H75v-1.115a4.624 4.624 0 0 1 4.622-4.622"/><circle cx="108.697" cy="444.026" r="12.094" fill="#bdadff"/><path fill="#242931" d="M114.6 442.736h-5.285l1.087-6.286-7.608 8.865h5.283l-1.084 6.287z"/><g fill="#fafafa"><path d="M139.592 437.164h5.414c3.971 0 6.193 2.812 6.193 6.934s-2.242 6.915-6.193 6.915h-5.414zm5.205 12.007c2.622 0 4.236-1.805 4.236-5.091 0-3.419-1.729-5.072-4.236-5.072h-3.135v10.164zM156.729 445.048h2.564v-.703c0-1.387-.854-1.957-2.09-1.957-1.272 0-2.09.646-2.146 1.615h-1.899c.151-1.938 1.805-3.173 4.122-3.173 2.641 0 3.951 1.425 3.951 3.628v4.389c0 .38.058.741.589.741.133 0 .285-.019.342-.038v1.444a3.8 3.8 0 0 1-.987.152c-1.121 0-1.748-.589-1.767-1.748h-.133c-.418 1.102-1.71 1.805-3.249 1.805-1.976 0-3.286-1.178-3.286-2.925 0-2.109 1.596-3.23 3.989-3.23m-.17 4.579c1.672 0 2.735-1.14 2.735-2.755v-.475h-2.355c-1.539 0-2.204.665-2.204 1.653 0 1.026.722 1.577 1.824 1.577M164.558 441.021v-2.869l1.976-.76v3.628h2.204v1.634h-2.204v5.357c0 .741.134 1.5 1.33 1.5.323 0 .703-.038.874-.095v1.596a5.9 5.9 0 0 1-1.387.152c-2.204 0-2.793-1.311-2.793-2.944v-5.566h-1.672v-1.634h1.672ZM174.058 445.048h2.564v-.703c0-1.387-.854-1.957-2.09-1.957-1.272 0-2.09.646-2.146 1.615h-1.899c.151-1.938 1.805-3.173 4.122-3.173 2.641 0 3.951 1.425 3.951 3.628v4.389c0 .38.058.741.589.741.133 0 .285-.019.342-.038v1.444a3.8 3.8 0 0 1-.987.152c-1.121 0-1.748-.589-1.767-1.748h-.133c-.418 1.102-1.71 1.805-3.249 1.805-1.976 0-3.286-1.178-3.286-2.925 0-2.109 1.596-3.23 3.989-3.23m-.171 4.579c1.672 0 2.735-1.14 2.735-2.755v-.475h-2.355c-1.539 0-2.204.665-2.204 1.653 0 1.026.722 1.577 1.824 1.577M197.046 452.571c.304 0 .607-.019.95-.076v1.843c-.343.038-.57.038-.779.038-2.944 0-4.636-1.311-5.319-3.172h-.095c-4.047 0-6.535-2.907-6.535-7.105 0-4.331 2.622-7.105 6.535-7.105 4.027 0 6.535 2.869 6.535 7.086 0 3.686-1.862 6.231-4.787 6.934.684.988 1.843 1.558 3.495 1.558Zm-5.243-3.249c2.717 0 4.369-2.089 4.369-5.224 0-3.21-1.729-5.262-4.369-5.262-2.679 0-4.351 2.09-4.351 5.243 0 3.229 1.71 5.243 4.351 5.243M209.34 451.013h-1.69l-.267-1.843h-.151c-.57 1.235-1.768 2.033-3.363 2.033-2.089 0-3.324-1.406-3.324-3.837v-6.345h1.976v6.06c0 1.653.76 2.432 2.108 2.432 1.691 0 2.755-1.33 2.755-3.249v-5.243h1.957zM215.478 445.048h2.564v-.703c0-1.387-.854-1.957-2.09-1.957-1.272 0-2.09.646-2.146 1.615h-1.899c.151-1.938 1.805-3.173 4.122-3.173 2.641 0 3.951 1.425 3.951 3.628v4.389c0 .38.058.741.589.741.133 0 .285-.019.342-.038v1.444a3.8 3.8 0 0 1-.987.152c-1.121 0-1.748-.589-1.767-1.748h-.133c-.418 1.102-1.71 1.805-3.249 1.805-1.976 0-3.286-1.178-3.286-2.925 0-2.109 1.596-3.23 3.989-3.23m-.171 4.579c1.672 0 2.735-1.14 2.735-2.755v-.475h-2.355c-1.539 0-2.204.665-2.204 1.653 0 1.026.722 1.577 1.824 1.577M223.097 437.031h1.938v13.982h-1.938zM228.113 437.183h1.938v2.337h-1.938zm0 3.838h1.938v9.993h-1.938zM233.489 441.021v-2.869l1.976-.76v3.628h2.204v1.634h-2.204v5.357c0 .741.134 1.5 1.33 1.5.323 0 .703-.038.874-.095v1.596a5.9 5.9 0 0 1-1.387.152c-2.204 0-2.793-1.311-2.793-2.944v-5.566h-1.672v-1.634h1.672ZM240.463 441.021l1.596 4.579.95 3.021h.114l.912-3.021 1.481-4.579h2.07l-3.571 10.164c-.551 1.577-1.614 3.191-4.027 3.191-.266 0-.665-.038-.969-.095v-1.653c.342.057.646.076.798.076 1.387 0 1.881-.931 2.07-1.52l.209-.532-3.761-9.632h2.127Z"/></g><g fill="#826bef"><circle cx="572.537" cy="444.026" r="2.954"/><circle cx="596.437" cy="444.026" r="2.954"/><circle cx="584.487" cy="444.026" r="3.536"/></g><path fill="#242931" d="M75 500.794h554.57v67.902a4.624 4.624 0 0 1-4.622 4.622H79.622A4.624 4.624 0 0 1 75 568.696z" opacity=".5"/><path fill="#826bef" d="M79.622 495.056h545.326a4.624 4.624 0 0 1 4.622 4.622v1.115H75v-1.115a4.624 4.624 0 0 1 4.622-4.622"/><circle cx="108.697" cy="535.753" r="12.094" fill="#bdadff"/><path fill="#242931" d="M114.6 534.464h-5.285l1.087-6.287-7.608 8.866h5.283l-1.084 6.286z"/><g fill="#fafafa"><path d="M139.592 528.892h9.232v1.843h-7.162v4.92h6.402v1.767h-6.402v5.319h-2.07zM150.974 528.911h1.938v2.337h-1.938zm0 3.837h1.938v9.993h-1.938zM155.229 537.782c0-3.172 1.899-5.224 4.749-5.224 2.83 0 4.502 1.805 4.502 4.521 0 .342-.038.779-.095 1.102h-7.181c-.038 2.052 1.083 3.173 2.812 3.173 1.349 0 2.317-.684 2.564-1.672h1.957c-.343 1.938-2.128 3.249-4.541 3.249-2.85 0-4.768-2.033-4.768-5.148Zm7.276-1.007c0-1.69-.95-2.641-2.564-2.641-1.596 0-2.659 1.045-2.717 2.641zM166.838 528.759h1.938v13.982h-1.938zM178.92 542.741l-.209-1.767h-.133c-.513 1.216-1.843 1.957-3.4 1.957-2.583 0-4.217-1.976-4.217-5.11 0-3.229 1.709-5.262 4.236-5.262 1.709 0 2.888.912 3.381 2.147h.133v-5.946h1.977v13.982zm-.209-5.509c0-1.824-1.253-2.963-2.906-2.963-1.843 0-2.83 1.387-2.83 3.552 0 2.261 1.102 3.419 2.792 3.419 1.748 0 2.944-1.234 2.944-2.887zM188.346 528.892h5.414c3.971 0 6.193 2.812 6.193 6.934s-2.242 6.915-6.193 6.915h-5.414zm5.205 12.006c2.622 0 4.236-1.805 4.236-5.091 0-3.419-1.729-5.072-4.236-5.072h-3.135v10.164zM202.292 528.911h1.938v2.337h-1.938zm0 3.837h1.938v9.993h-1.938zM210.728 541.449c1.292 0 2.033-.57 2.033-1.5 0-.95-.76-1.159-1.254-1.254l-2.033-.38c-1.976-.361-2.735-1.387-2.735-2.698 0-1.938 1.539-3.059 3.876-3.059 2.45 0 3.875 1.254 3.913 3.078h-1.899c-.038-1.102-.817-1.596-2.033-1.596s-1.881.532-1.881 1.387c0 1.045.988 1.216 1.52 1.292l1.9.342c1.919.342 2.659 1.387 2.659 2.812 0 1.881-1.614 3.059-4.065 3.059-2.641 0-4.179-1.33-4.179-3.249h1.918c0 1.102.855 1.767 2.261 1.767ZM218.897 532.748l.189 1.805h.134c.513-1.178 1.785-1.995 3.4-1.995 2.603 0 4.236 2.014 4.236 5.148 0 3.249-1.729 5.224-4.274 5.224-1.615 0-2.869-.798-3.362-2.033h-.134v5.015h-1.956v-13.165zm.19 5.567c0 1.729 1.216 2.925 2.907 2.925 1.843 0 2.85-1.425 2.85-3.533 0-2.261-1.121-3.438-2.812-3.438-1.71 0-2.945 1.254-2.945 2.925zM232.35 536.775h2.564v-.703c0-1.387-.854-1.957-2.09-1.957-1.272 0-2.09.646-2.146 1.615h-1.899c.151-1.938 1.805-3.173 4.122-3.173 2.641 0 3.951 1.425 3.951 3.628v4.389c0 .38.058.741.589.741.133 0 .285-.019.342-.038v1.444a3.8 3.8 0 0 1-.987.152c-1.121 0-1.748-.589-1.767-1.748h-.133c-.418 1.102-1.71 1.805-3.249 1.805-1.976 0-3.286-1.178-3.286-2.925 0-2.109 1.596-3.23 3.989-3.23m-.171 4.579c1.672 0 2.735-1.14 2.735-2.755v-.475h-2.355c-1.539 0-2.204.665-2.204 1.653 0 1.026.722 1.577 1.824 1.577M240.178 532.748v-2.869l1.976-.76v3.628h2.204v1.634h-2.204v5.357c0 .741.134 1.5 1.33 1.5.323 0 .703-.038.874-.095v1.596a5.9 5.9 0 0 1-1.387.152c-2.204 0-2.793-1.311-2.793-2.944v-5.566h-1.672v-1.634zM250.399 542.931c-2.906 0-4.806-2.052-4.806-5.167s1.88-5.206 4.863-5.206c2.374 0 4.141 1.406 4.35 3.553h-1.976c-.266-1.273-1.254-1.843-2.412-1.843-1.862 0-2.831 1.406-2.831 3.514 0 2.261 1.121 3.458 2.812 3.458 1.368 0 2.318-.798 2.47-1.976h1.995c-.19 2.223-1.995 3.667-4.465 3.667M257.088 528.759h1.956v5.813h.134c.626-1.272 1.861-2.014 3.343-2.014 2.223 0 3.458 1.596 3.458 4.065v6.117h-1.976v-5.927c0-1.729-.798-2.545-2.204-2.545-1.672 0-2.755 1.273-2.755 3.172v5.3h-1.956z"/></g><g fill="#826bef"><circle cx="572.537" cy="535.753" r="2.954"/><circle cx="596.437" cy="535.753" r="2.954"/><circle cx="584.487" cy="535.753" r="3.536"/></g><path fill="#242931" d="M75 592.521h554.57v67.902a4.624 4.624 0 0 1-4.622 4.622H79.622A4.624 4.624 0 0 1 75 660.423z" opacity=".5"/><path fill="#826bef" d="M79.622 586.784h545.326a4.624 4.624 0 0 1 4.622 4.622v1.115H75v-1.115a4.624 4.624 0 0 1 4.622-4.622"/><circle cx="108.697" cy="627.481" r="12.094" fill="#bdadff"/><path fill="#242931" d="M114.6 626.191h-5.285l1.087-6.287-7.608 8.866h5.283l-1.084 6.287z"/><g fill="#fafafa"><path d="M150.154 625.103c0 2.736-1.919 4.503-4.845 4.503l-3.647-.02v4.883h-2.07v-13.85h5.718c3.04 0 4.845 1.824 4.845 4.483Zm-2.184 0c0-2.47-2.204-2.583-2.926-2.583h-3.382v5.262h3.382c1.995 0 2.926-1.045 2.926-2.679M152.228 620.486h1.938v13.982h-1.938zM160.435 628.503h2.564v-.702c0-1.387-.854-1.957-2.09-1.957-1.272 0-2.09.646-2.146 1.615h-1.899c.151-1.938 1.805-3.173 4.122-3.173 2.641 0 3.951 1.425 3.951 3.628v4.389c0 .38.058.741.589.741.133 0 .285-.02.342-.038v1.443a3.7 3.7 0 0 1-.987.152c-1.121 0-1.748-.589-1.767-1.748h-.133c-.418 1.103-1.71 1.805-3.249 1.805-1.976 0-3.286-1.178-3.286-2.925 0-2.109 1.596-3.23 3.989-3.23m-.171 4.579c1.672 0 2.735-1.141 2.735-2.755v-.475h-2.355c-1.539 0-2.204.665-2.204 1.652 0 1.026.722 1.577 1.824 1.577ZM168.054 624.476h1.709l.267 1.862h.133c.608-1.292 1.843-2.052 3.344-2.052 2.223 0 3.457 1.614 3.457 4.084v6.099h-1.976v-5.908c0-1.748-.798-2.564-2.223-2.564-1.672 0-2.755 1.311-2.755 3.229v5.243h-1.956zM179.892 624.476h1.709l.267 1.862h.133c.608-1.292 1.843-2.052 3.344-2.052 2.223 0 3.457 1.614 3.457 4.084v6.099h-1.976v-5.908c0-1.748-.798-2.564-2.223-2.564-1.672 0-2.755 1.311-2.755 3.229v5.243h-1.956zM190.969 629.51c0-3.172 1.899-5.224 4.749-5.224 2.83 0 4.502 1.805 4.502 4.521 0 .342-.038.778-.095 1.102h-7.181c-.038 2.052 1.083 3.173 2.812 3.173 1.349 0 2.317-.685 2.564-1.672h1.957c-.343 1.938-2.128 3.248-4.541 3.248-2.85 0-4.768-2.032-4.768-5.148Zm7.275-1.007c0-1.69-.95-2.641-2.564-2.641-1.596 0-2.659 1.045-2.717 2.641zM209.967 634.469l-.209-1.767h-.133c-.513 1.216-1.843 1.956-3.4 1.956-2.583 0-4.217-1.976-4.217-5.11 0-3.229 1.709-5.262 4.236-5.262 1.709 0 2.888.912 3.381 2.146h.133v-5.946h1.977v13.982h-1.768Zm-.209-5.51c0-1.823-1.253-2.963-2.906-2.963-1.843 0-2.83 1.387-2.83 3.552 0 2.261 1.102 3.42 2.792 3.42 1.748 0 2.944-1.234 2.944-2.888zM220.019 620.619l1.52 7.922.589 3.647h.133l2.926-11.569h2.717l2.964 11.589h.113l.59-3.647 1.5-7.941h2.223l-2.83 13.85h-2.869l-2.982-11.418h-.113l-3.021 11.418h-2.868l-2.83-13.85h2.241ZM240.538 624.286c2.906 0 4.845 2.128 4.845 5.205 0 3.059-1.938 5.167-4.845 5.167s-4.844-2.108-4.844-5.148c0-3.077 1.938-5.224 4.844-5.224m0 8.663c1.729 0 2.831-1.312 2.831-3.477 0-2.09-1.026-3.477-2.831-3.477-1.748 0-2.85 1.329-2.85 3.495 0 2.09 1.045 3.458 2.85 3.458ZM247.684 624.476h1.709l.247 1.995h.114c.551-1.463 1.729-2.146 3.211-2.146v1.747c-2.242.02-3.325 1.406-3.325 3.876v4.521h-1.956zM258.303 629.757l-1.614 1.653v3.059h-1.976v-13.982h1.976v8.454l4.312-4.465h2.488l-3.837 3.914 4.027 6.079h-2.261z"/></g><g fill="#826bef"><circle cx="572.537" cy="627.481" r="2.954"/><circle cx="596.437" cy="627.481" r="2.954"/><circle cx="584.487" cy="627.481" r="3.536"/></g><path fill="#242931" d="M75 684.249h554.57v67.902a4.624 4.624 0 0 1-4.622 4.622H79.622A4.624 4.624 0 0 1 75 752.151z" opacity=".5"/><path fill="#826bef" d="M79.622 678.511h545.326a4.624 4.624 0 0 1 4.622 4.622v1.115H75v-1.115a4.624 4.624 0 0 1 4.622-4.622"/><circle cx="108.697" cy="719.208" r="12.094" fill="#bdadff"/><path fill="#242931" d="M114.6 717.918h-5.285l1.087-6.286-7.608 8.865h5.283l-1.084 6.287z"/><g fill="#fafafa"><path d="M139.592 726.196v-13.85h2.07v13.85zM145.007 716.203h1.709l.267 1.862h.133c.608-1.292 1.843-2.052 3.344-2.052 2.223 0 3.457 1.614 3.457 4.084v6.099h-1.976v-5.908c0-1.748-.798-2.564-2.223-2.564-1.672 0-2.755 1.311-2.755 3.229v5.243h-1.956zM160.263 724.904c1.292 0 2.033-.57 2.033-1.501 0-.95-.76-1.158-1.254-1.254l-2.033-.38c-1.976-.36-2.735-1.387-2.735-2.697 0-1.938 1.539-3.059 3.876-3.059 2.45 0 3.875 1.254 3.913 3.077h-1.899c-.038-1.102-.817-1.596-2.033-1.596s-1.881.532-1.881 1.387c0 1.045.988 1.216 1.52 1.292l1.9.342c1.919.342 2.659 1.387 2.659 2.812 0 1.881-1.614 3.059-4.065 3.059-2.641 0-4.179-1.329-4.179-3.248h1.918c0 1.102.855 1.767 2.261 1.767ZM168.434 716.203l.189 1.805h.134c.513-1.178 1.785-1.994 3.4-1.994 2.603 0 4.236 2.014 4.236 5.148 0 3.248-1.729 5.224-4.274 5.224-1.615 0-2.869-.798-3.362-2.032h-.134v5.015h-1.956v-13.165zm.189 5.567c0 1.729 1.216 2.926 2.907 2.926 1.843 0 2.85-1.425 2.85-3.533 0-2.261-1.121-3.438-2.812-3.438-1.71 0-2.945 1.254-2.945 2.925zM178.124 721.237c0-3.172 1.899-5.224 4.749-5.224 2.83 0 4.502 1.805 4.502 4.521 0 .342-.038.778-.095 1.102h-7.181c-.038 2.052 1.083 3.173 2.812 3.173 1.349 0 2.317-.685 2.564-1.672h1.957c-.343 1.938-2.128 3.248-4.541 3.248-2.85 0-4.768-2.032-4.768-5.148Zm7.275-1.006c0-1.69-.95-2.641-2.564-2.641-1.596 0-2.659 1.045-2.717 2.641zM193.969 726.386c-2.906 0-4.806-2.052-4.806-5.167s1.88-5.205 4.863-5.205c2.374 0 4.141 1.405 4.35 3.553H196.4c-.266-1.273-1.254-1.843-2.412-1.843-1.862 0-2.831 1.405-2.831 3.514 0 2.261 1.121 3.458 2.812 3.458 1.368 0 2.317-.798 2.47-1.976h1.995c-.19 2.223-1.995 3.666-4.465 3.666M209.264 726.196h-1.957l-.019-8.359h-4.294v5.319c0 .665.114 1.539 1.292 1.539.361 0 .685-.038.912-.095v1.596a6.7 6.7 0 0 1-1.349.151c-2.242 0-2.831-1.311-2.831-2.944v-5.566h-1.672v-1.634h1.672v-2.868l1.976-.76v3.628h6.27zm0-13.83v2.337h-1.976v-2.337zM216.408 716.014c2.906 0 4.845 2.128 4.845 5.205 0 3.059-1.938 5.167-4.845 5.167s-4.844-2.108-4.844-5.148c0-3.077 1.938-5.224 4.844-5.224m0 8.663c1.729 0 2.831-1.312 2.831-3.477 0-2.09-1.026-3.477-2.831-3.477-1.748 0-2.85 1.329-2.85 3.495 0 2.09 1.045 3.458 2.85 3.458ZM223.553 716.203h1.709l.267 1.862h.133c.607-1.292 1.843-2.052 3.344-2.052 2.223 0 3.457 1.614 3.457 4.084v6.099h-1.976v-5.908c0-1.748-.798-2.564-2.223-2.564-1.672 0-2.755 1.311-2.755 3.229v5.243h-1.956zM247.624 723.156h-6.136l-1.102 3.04h-2.147l5.13-13.85h2.394l5.205 13.85h-2.242zm-.607-1.672-.779-2.165-1.596-4.845h-.095l-1.653 4.845-.798 2.165zM252.585 716.203h1.709l.267 1.862h.133c.608-1.292 1.843-2.052 3.344-2.052 2.223 0 3.457 1.614 3.457 4.084v6.099h-1.976v-5.908c0-1.748-.798-2.564-2.223-2.564-1.672 0-2.755 1.311-2.755 3.229v5.243h-1.956zM267.613 720.231h2.564v-.702c0-1.387-.854-1.957-2.09-1.957-1.272 0-2.09.646-2.146 1.615h-1.899c.151-1.938 1.805-3.173 4.122-3.173 2.641 0 3.951 1.425 3.951 3.628v4.389c0 .38.058.741.589.741.133 0 .285-.02.342-.038v1.443a3.7 3.7 0 0 1-.987.152c-1.121 0-1.748-.589-1.767-1.748h-.133c-.418 1.103-1.71 1.805-3.249 1.805-1.976 0-3.286-1.178-3.286-2.925 0-2.109 1.596-3.23 3.989-3.23m-.171 4.579c1.672 0 2.735-1.141 2.735-2.755v-.475h-2.355c-1.539 0-2.204.665-2.204 1.652 0 1.026.722 1.577 1.824 1.577ZM275.233 712.214h1.938v13.982h-1.938zM280.78 716.203l1.596 4.579.95 3.021h.114l.912-3.021 1.481-4.579h2.07l-3.571 10.164c-.551 1.576-1.614 3.191-4.027 3.191-.266 0-.665-.038-.969-.095v-1.653c.342.058.646.076.798.076 1.387 0 1.881-.931 2.07-1.52l.209-.532-3.761-9.632h2.127ZM292.598 724.904c1.292 0 2.033-.57 2.033-1.501 0-.95-.76-1.158-1.254-1.254l-2.033-.38c-1.976-.36-2.735-1.387-2.735-2.697 0-1.938 1.539-3.059 3.876-3.059 2.45 0 3.875 1.254 3.913 3.077h-1.899c-.038-1.102-.817-1.596-2.033-1.596s-1.881.532-1.881 1.387c0 1.045.988 1.216 1.52 1.292l1.9.342c1.919.342 2.659 1.387 2.659 2.812 0 1.881-1.614 3.059-4.065 3.059-2.641 0-4.179-1.329-4.179-3.248h1.918c0 1.102.855 1.767 2.261 1.767ZM299.002 712.366h1.938v2.337h-1.938zm0 3.837h1.938v9.993h-1.938zM307.438 724.904c1.292 0 2.033-.57 2.033-1.501 0-.95-.76-1.158-1.254-1.254l-2.033-.38c-1.976-.36-2.735-1.387-2.735-2.697 0-1.938 1.539-3.059 3.876-3.059 2.45 0 3.875 1.254 3.913 3.077h-1.899c-.038-1.102-.817-1.596-2.033-1.596s-1.881.532-1.881 1.387c0 1.045.988 1.216 1.52 1.292l1.9.342c1.919.342 2.659 1.387 2.659 2.812 0 1.881-1.614 3.059-4.065 3.059-2.641 0-4.179-1.329-4.179-3.248h1.918c0 1.102.855 1.767 2.261 1.767Z"/></g><g fill="#826bef"><circle cx="572.537" cy="719.208" r="2.954"/><circle cx="596.437" cy="719.208" r="2.954"/><circle cx="584.487" cy="719.208" r="3.536"/></g><rect width="50.378" height="50.378" x="679.668" y="213.109" fill="#f99d41" rx="4.892" ry="4.892"/><rect width="233.457" height="50.684" x="733.051" y="213.109" fill="#fafafa" opacity=".07" rx="4.892" ry="4.892"/><g fill="#fafafa"><path d="M752.567 242.205c1.672 0 2.609-.781 2.609-1.922 0-1.297-1.188-1.562-1.703-1.688l-2.016-.438c-1.016-.203-3.203-.688-3.203-3.016 0-1.969 1.641-3.266 4.141-3.266 2.625 0 4.141 1.328 4.188 3.328h-1.75c-.094-1.328-1.062-1.953-2.531-1.953-1.453 0-2.266.656-2.266 1.656 0 1.219 1.219 1.484 1.922 1.656l2.016.406c1.453.297 3 1.109 3 3.156 0 2.219-1.75 3.453-4.406 3.453-2.984 0-4.531-1.531-4.562-3.688h1.75c.062 1.516 1.016 2.312 2.812 2.312ZM758.473 239.346c0-2.609 1.562-4.297 3.906-4.297 2.328 0 3.703 1.484 3.703 3.719 0 .281-.031.641-.078.906h-5.906c-.031 1.688.891 2.609 2.312 2.609 1.109 0 1.906-.562 2.109-1.375h1.609c-.281 1.594-1.75 2.672-3.734 2.672-2.344 0-3.922-1.672-3.922-4.234Zm5.984-.828c0-1.391-.781-2.172-2.109-2.172-1.312 0-2.188.859-2.234 2.172zM770.645 238.518h2.109v-.578c0-1.141-.703-1.609-1.719-1.609-1.047 0-1.719.531-1.766 1.328h-1.562c.125-1.594 1.484-2.609 3.391-2.609 2.172 0 3.25 1.172 3.25 2.984v3.609c0 .312.047.609.484.609a1.2 1.2 0 0 0 .281-.031v1.188a3.1 3.1 0 0 1-.812.125c-.922 0-1.438-.484-1.453-1.438h-.109c-.344.906-1.406 1.484-2.672 1.484-1.625 0-2.703-.969-2.703-2.406 0-1.734 1.312-2.656 3.281-2.656m-.141 3.765c1.375 0 2.25-.938 2.25-2.266v-.391h-1.938c-1.266 0-1.812.547-1.812 1.359 0 .844.594 1.297 1.5 1.297ZM776.909 235.205h1.406l.203 1.641h.094c.453-1.203 1.422-1.766 2.641-1.766v1.438c-1.844.016-2.734 1.156-2.734 3.188v3.719h-1.609zM785.69 243.58c-2.391 0-3.953-1.688-3.953-4.25s1.547-4.281 4-4.281c1.953 0 3.406 1.156 3.578 2.922h-1.625c-.219-1.047-1.031-1.516-1.984-1.516-1.531 0-2.328 1.156-2.328 2.891 0 1.859.922 2.844 2.312 2.844 1.125 0 1.906-.656 2.031-1.625h1.641c-.156 1.828-1.641 3.016-3.672 3.016ZM791.189 231.924h1.609v4.781h.109c.516-1.047 1.531-1.656 2.75-1.656 1.828 0 2.844 1.312 2.844 3.344v5.031h-1.625v-4.875c0-1.422-.656-2.094-1.812-2.094-1.375 0-2.266 1.047-2.266 2.609v4.359h-1.609zM807.11 238.518h2.109v-.578c0-1.141-.703-1.609-1.719-1.609-1.047 0-1.719.531-1.766 1.328h-1.562c.125-1.594 1.484-2.609 3.391-2.609 2.172 0 3.25 1.172 3.25 2.984v3.609c0 .312.047.609.484.609a1.2 1.2 0 0 0 .281-.031v1.188a3.1 3.1 0 0 1-.812.125c-.922 0-1.438-.484-1.453-1.438h-.109c-.344.906-1.406 1.484-2.672 1.484-1.625 0-2.703-.969-2.703-2.406 0-1.734 1.312-2.656 3.281-2.656m-.14 3.765c1.375 0 2.25-.938 2.25-2.266v-.391h-1.938c-1.266 0-1.812.547-1.812 1.359 0 .844.594 1.297 1.5 1.297ZM816.704 243.58c-2.391 0-3.953-1.688-3.953-4.25s1.547-4.281 4-4.281c1.953 0 3.406 1.156 3.578 2.922h-1.625c-.219-1.047-1.031-1.516-1.984-1.516-1.531 0-2.328 1.156-2.328 2.891 0 1.859.922 2.844 2.312 2.844 1.125 0 1.906-.656 2.031-1.625h1.641c-.156 1.828-1.641 3.016-3.672 3.016ZM822.203 235.205h1.406l.203 1.641h.094c.453-1.203 1.422-1.766 2.641-1.766v1.438c-1.844.016-2.734 1.156-2.734 3.188v3.719h-1.609zM831.016 235.049c2.391 0 3.984 1.75 3.984 4.281 0 2.516-1.594 4.25-3.984 4.25s-3.984-1.734-3.984-4.234c0-2.531 1.594-4.297 3.984-4.297m0 7.125c1.422 0 2.328-1.078 2.328-2.859 0-1.719-.844-2.859-2.328-2.859-1.438 0-2.344 1.094-2.344 2.875 0 1.719.859 2.844 2.344 2.844ZM839.702 242.361c1.062 0 1.672-.469 1.672-1.234 0-.781-.625-.953-1.031-1.031l-1.672-.312c-1.625-.297-2.25-1.141-2.25-2.219 0-1.594 1.266-2.516 3.188-2.516 2.016 0 3.188 1.031 3.219 2.531h-1.562c-.031-.906-.672-1.312-1.672-1.312s-1.547.438-1.547 1.141c0 .859.812 1 1.25 1.062l1.562.281c1.578.281 2.188 1.141 2.188 2.312 0 1.547-1.328 2.516-3.344 2.516-2.172 0-3.438-1.094-3.438-2.672h1.578c0 .906.703 1.453 1.859 1.453M847.78 242.361c1.062 0 1.672-.469 1.672-1.234 0-.781-.625-.953-1.031-1.031l-1.672-.312c-1.625-.297-2.25-1.141-2.25-2.219 0-1.594 1.266-2.516 3.188-2.516 2.016 0 3.188 1.031 3.219 2.531h-1.562c-.031-.906-.672-1.312-1.672-1.312s-1.547.438-1.547 1.141c0 .859.812 1 1.25 1.062l1.562.281c1.578.281 2.188 1.141 2.188 2.312 0 1.547-1.328 2.516-3.344 2.516-2.172 0-3.438-1.094-3.438-2.672h1.578c0 .906.703 1.453 1.859 1.453M857.045 235.205l1.312 3.766.781 2.484h.094l.75-2.484 1.219-3.766h1.703l-2.938 8.359c-.453 1.297-1.328 2.625-3.312 2.625-.219 0-.547-.031-.797-.078v-1.359c.281.047.531.062.656.062 1.141 0 1.547-.766 1.703-1.25l.172-.438-3.094-7.922h1.75ZM867.466 235.049c2.391 0 3.984 1.75 3.984 4.281 0 2.516-1.594 4.25-3.984 4.25s-3.984-1.734-3.984-4.234c0-2.531 1.594-4.297 3.984-4.297m0 7.125c1.422 0 2.328-1.078 2.328-2.859 0-1.719-.844-2.859-2.328-2.859-1.438 0-2.344 1.094-2.344 2.875 0 1.719.859 2.844 2.344 2.844ZM880.45 243.424h-1.391l-.219-1.516h-.125c-.469 1.016-1.453 1.672-2.766 1.672-1.719 0-2.734-1.156-2.734-3.156v-5.219h1.625v4.984c0 1.359.625 2 1.734 2 1.391 0 2.266-1.094 2.266-2.672v-4.312h1.609zM882.872 235.205h1.406l.203 1.641h.094c.453-1.203 1.422-1.766 2.641-1.766v1.438c-1.844.016-2.734 1.156-2.734 3.188v3.719h-1.609zM892.683 242.705v-.109a1.2 1.2 0 0 1-.844-1.156c0-.672.453-1.188 1.109-1.391v-.109c-.766-.453-1.188-1.25-1.188-2.172 0-1.641 1.297-2.719 3.156-2.719.547 0 1.109.109 1.484.312.312-.906 1.25-1.516 2.453-1.516v1.297c-.734 0-1.344.312-1.516.75.516.469.812 1.156.812 1.922 0 1.609-1.25 2.672-3.125 2.672a4.7 4.7 0 0 1-1.078-.109c-.406.078-.625.344-.625.688 0 .641.672.672 1.062.672h2.094c1.625 0 2.531.812 2.531 2.109 0 1.688-1.594 2.438-4.062 2.438-2.422 0-3.5-.797-3.5-1.984 0-.781.5-1.391 1.234-1.594Zm2.344 2.391c1.688 0 2.375-.438 2.375-1.188 0-.875-.922-.875-1.125-.875h-2.125c-.828 0-1.234.391-1.234.984 0 .734.672 1.078 2.109 1.078Zm-.078-5.75c1.031 0 1.609-.625 1.609-1.562 0-1-.641-1.578-1.609-1.578-1 0-1.594.641-1.594 1.578 0 1 .641 1.562 1.594 1.562M900.698 235.205h1.406l.203 1.641h.094c.453-1.203 1.422-1.766 2.641-1.766v1.438c-1.844.016-2.734 1.156-2.734 3.188v3.719h-1.609zM906.479 232.049h1.594v1.922h-1.594zm0 3.156h1.594v8.219h-1.594zM916.526 243.424l-.172-1.453h-.109c-.422 1-1.516 1.609-2.797 1.609-2.125 0-3.469-1.625-3.469-4.203 0-2.656 1.406-4.328 3.484-4.328 1.406 0 2.375.75 2.781 1.766h.109v-4.891h1.625v11.5h-1.453Zm-.172-4.531c0-1.5-1.031-2.438-2.391-2.438-1.516 0-2.328 1.141-2.328 2.922 0 1.859.906 2.812 2.297 2.812 1.438 0 2.422-1.016 2.422-2.375zM920.26 241.299h1.906v2.125h-1.906zM924.212 241.299h1.906v2.125h-1.906zM928.166 241.299h1.906v2.125h-1.906z"/></g><path fill="#242931" d="M712.862 230.769q-.266-.556-.923-.556h-14.163q-.657 0-.923.556c-.266.556-.14.725.114 1.062l5.868 7.486v6.942h1.434l2.613-2.473v-4.469l5.868-7.486q.38-.505.114-1.062Z"/><rect width="81.355" height="50.378" x="1704.288" y="213.109" fill="#f99d41" rx="4.892" ry="4.892"/><g fill="#242931"><path d="M1750.346 239.899h1.646c-.045 1.447.816 2.141 2.018 2.141 1.262 0 2.109-.771 2.109-1.925 0-1.17-.832-1.894-2.141-1.894h-.908v-1.293h.848c1.354 0 2.031-.801 2.031-1.802 0-1.093-.847-1.663-1.908-1.663-1.232 0-1.956.755-1.971 2.094h-1.648c-.016-2.14 1.51-3.51 3.664-3.51 1.94 0 3.526 1.062 3.526 2.94 0 1.078-.523 2.002-1.647 2.494v.093c1.293.431 1.816 1.509 1.816 2.602 0 1.955-1.57 3.264-3.787 3.264-2.31 0-3.68-1.416-3.648-3.541M1760.15 232.063h4.389c3.217 0 5.019 2.278 5.019 5.619s-1.817 5.604-5.019 5.604h-4.389zm4.219 9.729c2.125 0 3.434-1.462 3.434-4.126 0-2.771-1.401-4.11-3.434-4.11h-2.541v8.236z"/></g><path fill="#242931" d="M1730.206 245.264v-7.343l-6.42-3.712v6.44a1.56 1.56 0 0 0 .803 1.385zm1.605 0 5.618-3.23q.38-.22.592-.582c.212-.362.211-.508.211-.803v-6.44l-6.42 3.712zm5.601-12.375-5.615-3.235q-.383-.219-.8-.22c-.417-.001-.545.073-.8.221l-5.569 3.235 6.434 3.687z"/><g fill="none" stroke="#242931" stroke-miterlimit="10" stroke-width="1.605"><path d="M1720.619 231.196v-4.237h4.237M1741.399 243.502v4.237h-4.237"/></g><g fill="none" stroke="#242931" stroke-miterlimit="10" stroke-width="1.605"><path d="M1741.399 231.196v-4.237h-4.237M1720.619 243.502v4.237h4.237"/></g><g fill="#fafafa"><rect width="81.355" height="50.378" x="1788.645" y="213.109" opacity=".07" rx="4.892" ry="4.892"/><g opacity=".7"><path d="M1842.017 241.869v1.417h-7.359v-.385c0-2.51 1.816-3.618 3.618-4.881 1.047-.755 1.939-1.479 1.939-2.726 0-1.17-.77-1.832-1.908-1.832-1.279 0-2.002.801-1.926 2.079h-1.601c-.062-2.094 1.417-3.495 3.618-3.495 2.094 0 3.479 1.324 3.479 3.233 0 1.724-1.108 2.771-2.417 3.726-1.278.924-2.771 1.771-3.064 2.972.693-.062 1.51-.108 2.232-.108zM1844.17 232.063h4.389c3.217 0 5.019 2.278 5.019 5.619s-1.817 5.604-5.019 5.604h-4.389zm4.219 9.729c2.125 0 3.434-1.462 3.434-4.126 0-2.771-1.401-4.11-3.434-4.11h-2.541v8.236zM1818.159 247.598v-16.415l-6.991-3.199V244.4zM1819.94 247.598l4.893-2.113v-16.69l-4.893 2.388zM1804.494 246.859l4.893-2.459v-16.416l-4.893 2.184z"/></g></g><g fill="#fafafa" opacity=".7"><path d="M80.837 802.587c3.206 0 5.202 2.283 5.202 5.641 0 3.478-2.072 5.671-5.202 5.671-3.221 0-5.202-2.314-5.202-5.656 0-3.447 2.087-5.655 5.202-5.655Zm0 9.814c2.162 0 3.478-1.664 3.478-4.159 0-2.555-1.376-4.188-3.478-4.188-2.132 0-3.463 1.664-3.463 4.174 0 2.57 1.361 4.174 3.463 4.174ZM89.317 805.793l.151 1.437h.106c.408-.938 1.421-1.588 2.706-1.588 2.072 0 3.372 1.603 3.372 4.098 0 2.586-1.376 4.159-3.402 4.159-1.285 0-2.283-.636-2.676-1.618h-.106v3.992H87.91v-10.479h1.406Zm.152 4.431c0 1.376.968 2.328 2.313 2.328 1.467 0 2.269-1.134 2.269-2.812 0-1.799-.893-2.736-2.238-2.736-1.36 0-2.344.998-2.344 2.328zM97.027 809.8c0-2.525 1.512-4.158 3.78-4.158 2.253 0 3.584 1.437 3.584 3.599 0 .272-.03.62-.076.878h-5.716c-.03 1.633.862 2.524 2.238 2.524 1.073 0 1.845-.544 2.041-1.33h1.558c-.272 1.542-1.693 2.586-3.614 2.586-2.268 0-3.795-1.618-3.795-4.099m5.791-.801c0-1.346-.756-2.103-2.041-2.103-1.271 0-2.117.832-2.162 2.103zM106.265 805.793h1.361l.196 1.588h.091c.438-1.164 1.376-1.709 2.556-1.709v1.392c-1.784.015-2.646 1.119-2.646 3.084v3.6h-1.558v-7.954ZM114.324 808.999h2.041v-.56c0-1.104-.681-1.558-1.663-1.558-1.014 0-1.664.514-1.709 1.285h-1.512c.12-1.542 1.437-2.525 3.281-2.525 2.102 0 3.145 1.134 3.145 2.889v3.493c0 .302.046.589.469.589.106 0 .228-.015.272-.03v1.149c-.257.076-.56.121-.786.121-.893 0-1.392-.469-1.406-1.391h-.105c-.333.877-1.361 1.437-2.586 1.437-1.573 0-2.616-.938-2.616-2.329 0-1.679 1.271-2.57 3.176-2.57Zm-.136 3.644c1.331 0 2.178-.907 2.178-2.192v-.378h-1.875c-1.225 0-1.754.529-1.754 1.315 0 .816.574 1.255 1.451 1.255M127.115 813.747h-1.558l-.016-6.653h-3.417v4.233c0 .529.091 1.225 1.028 1.225.287 0 .544-.029.726-.075v1.271a5.4 5.4 0 0 1-1.073.121c-1.785 0-2.254-1.044-2.254-2.344v-4.431h-1.33v-1.301h1.33v-2.283l1.573-.605v2.889h4.99v7.954Zm0-11.009v1.86h-1.573v-1.86zM132.798 805.642c2.313 0 3.856 1.693 3.856 4.144 0 2.435-1.543 4.113-3.856 4.113s-3.855-1.679-3.855-4.099c0-2.449 1.542-4.158 3.855-4.158m0 6.895c1.376 0 2.254-1.043 2.254-2.768 0-1.663-.817-2.767-2.254-2.767-1.391 0-2.268 1.059-2.268 2.782 0 1.663.831 2.752 2.268 2.752ZM138.482 805.793h1.361l.212 1.481h.105c.483-1.027 1.467-1.633 2.661-1.633 1.77 0 2.752 1.285 2.752 3.251v4.854h-1.572v-4.703c0-1.391-.635-2.041-1.77-2.041-1.33 0-2.192 1.043-2.192 2.57v4.174h-1.558v-7.954ZM150.623 812.719c1.028 0 1.618-.454 1.618-1.194 0-.757-.604-.923-.998-.998l-1.618-.303c-1.572-.287-2.177-1.104-2.177-2.147 0-1.542 1.225-2.435 3.085-2.435 1.95 0 3.084.998 3.114 2.45h-1.512c-.03-.877-.65-1.271-1.618-1.271s-1.497.423-1.497 1.104c0 .832.786.968 1.21 1.028l1.512.272c1.527.272 2.117 1.104 2.117 2.238 0 1.497-1.285 2.435-3.236 2.435-2.102 0-3.326-1.059-3.326-2.586h1.527c0 .877.681 1.406 1.799 1.406Z"/></g><rect width="554.57" height="81.363" x="75" y="921.523" fill="#242931" opacity=".5" rx="4.622" ry="4.622"/><g fill="#fafafa" opacity=".7"><path d="M209.787 958.031c2.907 0 4.844 2.128 4.844 5.205 0 3.059-1.938 5.167-4.844 5.167s-4.844-2.108-4.844-5.148c0-3.077 1.938-5.224 4.844-5.224m0 8.662c1.729 0 2.831-1.311 2.831-3.476 0-2.09-1.026-3.477-2.831-3.477-1.748 0-2.85 1.329-2.85 3.495 0 2.09 1.045 3.457 2.85 3.457ZM219.42 959.855v8.359h-1.957v-8.359h-1.824v-1.634h1.824v-1.158c0-2.033 1.216-2.944 3.097-2.944.437 0 .893.037 1.197.133v1.596a3.8 3.8 0 0 0-.874-.096c-1.083 0-1.463.532-1.463 1.501v.969h2.337v1.634h-2.337ZM228.141 954.364h2.071v5.908h7.504v-5.908h2.071v13.85h-2.071v-6.212h-7.504v6.212h-2.071zM246.324 962.248h2.564v-.702c0-1.387-.855-1.957-2.09-1.957-1.272 0-2.089.646-2.146 1.615h-1.9c.152-1.938 1.805-3.173 4.123-3.173 2.641 0 3.951 1.425 3.951 3.628v4.389c0 .38.057.741.589.741.133 0 .285-.02.342-.038v1.443a3.8 3.8 0 0 1-.988.152c-1.121 0-1.748-.589-1.767-1.748h-.133c-.418 1.103-1.709 1.805-3.249 1.805-1.976 0-3.287-1.178-3.287-2.926 0-2.108 1.596-3.229 3.99-3.229Zm-.171 4.579c1.672 0 2.736-1.141 2.736-2.755v-.475h-2.355c-1.539 0-2.204.664-2.204 1.652 0 1.026.722 1.577 1.823 1.577ZM261.125 966.599v1.615h-7.599v-1.463l5.167-6.896h-5.186v-1.634h7.561v1.482l-5.186 6.896zM266.578 962.248h2.564v-.702c0-1.387-.855-1.957-2.09-1.957-1.272 0-2.089.646-2.146 1.615h-1.9c.152-1.938 1.805-3.173 4.123-3.173 2.641 0 3.951 1.425 3.951 3.628v4.389c0 .38.057.741.589.741.133 0 .285-.02.342-.038v1.443a3.8 3.8 0 0 1-.988.152c-1.121 0-1.748-.589-1.767-1.748h-.133c-.418 1.103-1.709 1.805-3.249 1.805-1.976 0-3.287-1.178-3.287-2.926 0-2.108 1.596-3.229 3.99-3.229Zm-.171 4.579c1.672 0 2.736-1.141 2.736-2.755v-.475h-2.355c-1.539 0-2.204.664-2.204 1.652 0 1.026.722 1.577 1.823 1.577ZM274.197 958.221h1.71l.247 1.995h.114c.551-1.463 1.729-2.146 3.21-2.146v1.747c-2.242.02-3.324 1.406-3.324 3.876v4.521h-1.957zM288.028 968.214l-.209-1.767h-.133c-.513 1.216-1.843 1.956-3.401 1.956-2.583 0-4.217-1.976-4.217-5.11 0-3.229 1.71-5.262 4.236-5.262 1.71 0 2.888.912 3.382 2.146h.133v-5.946h1.976v13.982h-1.767Zm-.209-5.51c0-1.823-1.254-2.963-2.907-2.963-1.843 0-2.831 1.387-2.831 3.552 0 2.261 1.102 3.42 2.792 3.42 1.748 0 2.945-1.235 2.945-2.888v-1.121ZM303 968.403c-3.952 0-6.554-2.85-6.554-7.104s2.622-7.105 6.554-7.105c3.249 0 5.642 1.843 6.06 4.75h-2.147c-.437-1.824-1.938-2.907-3.913-2.907-2.679 0-4.37 2.052-4.37 5.263 0 3.248 1.691 5.262 4.332 5.262 2.185 0 3.571-1.178 3.951-2.963h2.147c-.38 2.925-2.812 4.806-6.06 4.806ZM314.667 962.248h2.564v-.702c0-1.387-.855-1.957-2.09-1.957-1.272 0-2.089.646-2.146 1.615h-1.9c.152-1.938 1.805-3.173 4.123-3.173 2.641 0 3.951 1.425 3.951 3.628v4.389c0 .38.057.741.589.741.133 0 .285-.02.342-.038v1.443a3.8 3.8 0 0 1-.988.152c-1.121 0-1.748-.589-1.767-1.748h-.133c-.418 1.103-1.709 1.805-3.249 1.805-1.976 0-3.287-1.178-3.287-2.926 0-2.108 1.596-3.229 3.99-3.229Zm-.171 4.579c1.672 0 2.736-1.141 2.736-2.755v-.475h-2.355c-1.539 0-2.204.664-2.204 1.652 0 1.026.722 1.577 1.823 1.577ZM322.286 954.232h1.938v13.982h-1.938zM327.302 954.232h1.938v13.982h-1.938zM335.738 966.922c1.292 0 2.033-.57 2.033-1.501 0-.95-.76-1.159-1.254-1.254l-2.033-.38c-1.976-.36-2.736-1.387-2.736-2.697 0-1.938 1.539-3.059 3.875-3.059 2.451 0 3.875 1.254 3.914 3.077h-1.9c-.038-1.102-.817-1.596-2.033-1.596s-1.881.532-1.881 1.387c0 1.045.988 1.216 1.52 1.292l1.9.342c1.918.342 2.659 1.387 2.659 2.812 0 1.881-1.615 3.059-4.065 3.059-2.641 0-4.18-1.329-4.18-3.248h1.919c0 1.102.854 1.767 2.261 1.767ZM346.739 954.364h6.288c2.926 0 4.351 1.596 4.351 3.971 0 1.653-.893 2.85-2.223 3.458v.133c1.368.304 1.976 1.254 1.976 2.679v2.052c0 .493 0 1.045.209 1.558h-2.109c-.19-.38-.209-.836-.209-1.672v-1.558c0-1.349-.456-2.052-2.089-2.052h-4.123v5.281h-2.071zm5.567 6.745c1.786 0 2.887-1.025 2.887-2.526 0-1.729-1.044-2.394-2.641-2.394h-3.742v4.92zM359.166 963.255c0-3.172 1.9-5.224 4.75-5.224 2.831 0 4.502 1.805 4.502 4.521 0 .342-.038.778-.095 1.102h-7.181c-.038 2.052 1.083 3.173 2.812 3.173 1.349 0 2.317-.685 2.564-1.672h1.957c-.342 1.938-2.127 3.248-4.54 3.248-2.85 0-4.769-2.032-4.769-5.148m7.275-1.007c0-1.69-.95-2.641-2.564-2.641-1.596 0-2.66 1.045-2.717 2.641zM374.194 966.922c1.292 0 2.032-.57 2.032-1.501 0-.95-.76-1.159-1.253-1.254l-2.033-.38c-1.976-.36-2.736-1.387-2.736-2.697 0-1.938 1.539-3.059 3.875-3.059 2.451 0 3.875 1.254 3.914 3.077h-1.9c-.038-1.102-.817-1.596-2.033-1.596s-1.881.532-1.881 1.387c0 1.045.988 1.216 1.52 1.292l1.9.342c1.918.342 2.659 1.387 2.659 2.812 0 1.881-1.615 3.059-4.065 3.059-2.641 0-4.18-1.329-4.18-3.248h1.919c0 1.102.854 1.767 2.261 1.767ZM384.814 958.031c2.907 0 4.844 2.128 4.844 5.205 0 3.059-1.938 5.167-4.844 5.167s-4.844-2.108-4.844-5.148c0-3.077 1.938-5.224 4.844-5.224m0 8.662c1.729 0 2.831-1.311 2.831-3.476 0-2.09-1.026-3.477-2.831-3.477-1.748 0-2.85 1.329-2.85 3.495 0 2.09 1.045 3.457 2.85 3.457ZM391.959 954.232h1.938v13.982h-1.938zM397.545 958.221l1.596 5.016.95 3.077h.114l.893-3.059 1.596-5.034h2.147l-3.515 9.993h-2.375l-3.553-9.993zM405.525 963.255c0-3.172 1.9-5.224 4.75-5.224 2.831 0 4.502 1.805 4.502 4.521 0 .342-.038.778-.095 1.102h-7.181c-.038 2.052 1.083 3.173 2.812 3.173 1.349 0 2.317-.685 2.564-1.672h1.957c-.342 1.938-2.127 3.248-4.54 3.248-2.85 0-4.769-2.032-4.769-5.148m7.276-1.007c0-1.69-.95-2.641-2.564-2.641-1.596 0-2.66 1.045-2.717 2.641zM424.524 968.214l-.209-1.767h-.133c-.513 1.216-1.843 1.956-3.401 1.956-2.583 0-4.217-1.976-4.217-5.11 0-3.229 1.71-5.262 4.236-5.262 1.71 0 2.888.912 3.382 2.146h.133v-5.946h1.976v13.982h-1.767Zm-.209-5.51c0-1.823-1.254-2.963-2.907-2.963-1.843 0-2.831 1.387-2.831 3.552 0 2.261 1.102 3.42 2.792 3.42 1.748 0 2.945-1.235 2.945-2.888v-1.121Z"/></g><g fill="#6bce95"><path d="M151.704 964.479h2.267c.194 1.273 1.209 2.008 2.656 2.008 2.418 0 3.433-2.116 3.217-5.679h-.108c-.712 1.339-2.008 2.03-3.605 2.03-2.786 0-4.729-2.03-4.729-5.117 0-3.109 2.029-5.269 5.247-5.269 4.016 0 5.549 3.39 5.549 8.14 0 5.549-1.943 7.838-5.679 7.838-2.655 0-4.556-1.598-4.814-3.951Zm7.816-6.824c0-1.921-1.166-3.217-2.937-3.217s-2.872 1.273-2.872 3.282c0 2.051 1.166 3.217 2.872 3.217 1.922 0 2.937-1.533 2.937-3.282M166.886 960.527v-.173c-1.425-.647-2.267-2.073-2.267-3.649 0-2.482 2.116-4.231 5.268-4.231 3.131 0 5.268 1.728 5.268 4.231 0 1.576-.842 2.98-2.245 3.649v.173c1.425.69 2.245 2.072 2.245 3.67 0 2.505-2.137 4.232-5.29 4.232-3.131 0-5.247-1.749-5.247-4.232 0-1.641.82-2.979 2.267-3.67Zm2.98-.993c1.878 0 2.958-1.059 2.958-2.548 0-1.598-1.188-2.548-2.958-2.548-1.835 0-2.915 1.036-2.915 2.548 0 1.598 1.209 2.548 2.915 2.548m0 6.909c1.9 0 2.958-1.036 2.958-2.548 0-1.576-1.188-2.548-2.958-2.548-1.857 0-2.915 1.079-2.915 2.548 0 1.641 1.231 2.548 2.915 2.548M181.356 952.301c2.311 0 3.843 1.576 3.843 3.908s-1.555 3.93-3.843 3.93c-2.246 0-3.822-1.598-3.822-3.951 0-2.311 1.555-3.887 3.822-3.887m0 6.348c1.295 0 2.159-1.015 2.159-2.461 0-1.425-.864-2.418-2.159-2.418-1.252 0-2.116.993-2.116 2.418 0 1.446.842 2.461 2.116 2.461m8.96-6.175h1.598l-9.975 15.74h-1.598zm.303 8.075c2.289 0 3.8 1.641 3.8 3.951s-1.533 3.93-3.8 3.93c-2.289 0-3.843-1.598-3.843-3.951 0-2.289 1.533-3.93 3.843-3.93m0 6.391c1.252 0 2.138-1.015 2.138-2.461 0-1.425-.885-2.44-2.138-2.44-1.295 0-2.159 1.016-2.159 2.44 0 1.446.885 2.461 2.159 2.461"/></g><rect width="39.666" height="39.666" x="96.557" y="942.372" fill="#304241" rx="3.5" ry="3.5"/><g fill="#6bce95"><path d="M109.723 970.673q-.755 0-1.278-.523c-.523-.523-.523-.775-.523-1.278v-13.334q0-.755.523-1.278c.523-.523.775-.523 1.278-.523h13.334q.754 0 1.278.523c.524.523.523.775.523 1.278v13.334q0 .755-.523 1.278c-.523.523-.775.523-1.278.523zm6.667-3.46q.947 0 1.719-.548a2.82 2.82 0 0 0 1.071-1.445h4.184v-9.682a.3.3 0 0 0-.086-.22.3.3 0 0 0-.22-.086h-13.334a.3.3 0 0 0-.22.086.3.3 0 0 0-.086.22v9.682h4.184a2.82 2.82 0 0 0 1.071 1.445 2.9 2.9 0 0 0 1.719.548Z"/><path d="m113.861 959.685-1.17 1.171 2.599 2.599 4.798-4.798-1.17-1.17-3.628 3.628z"/></g><rect width="554.57" height="81.363" x="75" y="836.778" fill="#242931" opacity=".5" rx="4.622" ry="4.622"/><g fill="#fafafa" opacity=".7"><path d="M209.787 874.154c2.907 0 4.844 2.128 4.844 5.206 0 3.058-1.938 5.166-4.844 5.166s-4.844-2.108-4.844-5.148c0-3.076 1.938-5.224 4.844-5.224m0 8.663c1.729 0 2.831-1.311 2.831-3.477 0-2.09-1.026-3.477-2.831-3.477-1.748 0-2.85 1.33-2.85 3.496 0 2.089 1.045 3.457 2.85 3.457ZM219.42 875.978v8.359h-1.957v-8.359h-1.824v-1.633h1.824v-1.159c0-2.032 1.216-2.944 3.097-2.944.437 0 .893.037 1.197.133v1.596a3.8 3.8 0 0 0-.874-.096c-1.083 0-1.463.533-1.463 1.502v.969h2.337v1.633h-2.337ZM233.688 884.526c-3.952 0-6.554-2.85-6.554-7.104s2.622-7.104 6.554-7.104c3.249 0 5.642 1.842 6.06 4.749h-2.147c-.437-1.823-1.938-2.907-3.913-2.907-2.679 0-4.37 2.053-4.37 5.263 0 3.249 1.691 5.263 4.332 5.263 2.185 0 3.571-1.178 3.951-2.964h2.147c-.38 2.925-2.812 4.806-6.06 4.806ZM242.163 874.345h1.71l.247 1.994h.114c.551-1.463 1.729-2.146 3.21-2.146v1.748c-2.242.019-3.324 1.406-3.324 3.875v4.521h-1.957zM248.034 879.378c0-3.172 1.9-5.224 4.75-5.224 2.831 0 4.502 1.805 4.502 4.521 0 .342-.038.778-.095 1.103h-7.181c-.038 2.051 1.083 3.172 2.812 3.172 1.349 0 2.317-.684 2.564-1.672h1.957c-.342 1.938-2.127 3.248-4.54 3.248-2.85 0-4.769-2.032-4.769-5.148m7.276-1.006c0-1.691-.95-2.641-2.564-2.641-1.596 0-2.66 1.045-2.717 2.641zM272.125 874.345l-2.717 9.992h-2.526l-1.159-4.901-.589-2.641h-.114l-.551 2.641-1.121 4.901h-2.507l-2.774-9.992h2.071l1.254 5.016.646 3.02h.152l1.786-8.035h2.299l1.824 8.017h.133l.608-2.964 1.254-5.053h2.033ZM277.142 883.045c1.292 0 2.032-.569 2.032-1.501 0-.949-.76-1.158-1.253-1.254l-2.033-.379c-1.976-.361-2.736-1.387-2.736-2.698 0-1.938 1.539-3.059 3.875-3.059 2.451 0 3.875 1.254 3.914 3.077h-1.9c-.038-1.102-.817-1.596-2.033-1.596s-1.881.532-1.881 1.387c0 1.045.988 1.217 1.52 1.293l1.9.342c1.918.342 2.659 1.387 2.659 2.811 0 1.881-1.615 3.059-4.065 3.059-2.641 0-4.18-1.329-4.18-3.248h1.919c0 1.102.854 1.767 2.261 1.767ZM295.78 881.298h-6.136l-1.102 3.039h-2.146l5.129-13.85h2.394l5.205 13.85h-2.242zm-.608-1.672-.779-2.166-1.596-4.844h-.095l-1.653 4.844-.798 2.166h4.92ZM304.065 883.045c1.292 0 2.032-.569 2.032-1.501 0-.949-.76-1.158-1.253-1.254l-2.033-.379c-1.976-.361-2.736-1.387-2.736-2.698 0-1.938 1.539-3.059 3.875-3.059 2.451 0 3.875 1.254 3.914 3.077h-1.9c-.038-1.102-.817-1.596-2.033-1.596s-1.881.532-1.881 1.387c0 1.045.988 1.217 1.52 1.293l1.9.342c1.918.342 2.659 1.387 2.659 2.811 0 1.881-1.615 3.059-4.065 3.059-2.641 0-4.18-1.329-4.18-3.248h1.919c0 1.102.854 1.767 2.261 1.767ZM313.888 883.045c1.292 0 2.032-.569 2.032-1.501 0-.949-.76-1.158-1.253-1.254l-2.033-.379c-1.976-.361-2.736-1.387-2.736-2.698 0-1.938 1.539-3.059 3.875-3.059 2.451 0 3.875 1.254 3.914 3.077h-1.9c-.038-1.102-.817-1.596-2.033-1.596s-1.881.532-1.881 1.387c0 1.045.988 1.217 1.52 1.293l1.9.342c1.918.342 2.659 1.387 2.659 2.811 0 1.881-1.615 3.059-4.065 3.059-2.641 0-4.18-1.329-4.18-3.248h1.919c0 1.102.854 1.767 2.261 1.767ZM320.291 870.507h1.938v2.337h-1.938zm0 3.838h1.938v9.992h-1.938zM325.877 883.463v-.133a1.465 1.465 0 0 1-1.026-1.405c0-.817.551-1.444 1.349-1.691v-.133c-.931-.551-1.444-1.52-1.444-2.641 0-1.994 1.577-3.306 3.837-3.306.665 0 1.349.134 1.805.38.38-1.102 1.52-1.843 2.983-1.843v1.577c-.893 0-1.634.38-1.843.912.627.569.988 1.405.988 2.336 0 1.957-1.52 3.249-3.799 3.249-.456 0-.931-.038-1.311-.134-.494.096-.76.418-.76.836 0 .779.817.817 1.292.817h2.546c1.976 0 3.078.987 3.078 2.564 0 2.052-1.938 2.964-4.939 2.964-2.944 0-4.255-.969-4.255-2.412 0-.951.608-1.691 1.501-1.938Zm2.85 2.907c2.051 0 2.887-.532 2.887-1.444 0-1.063-1.121-1.063-1.368-1.063h-2.583c-1.007 0-1.501.475-1.501 1.196 0 .894.817 1.312 2.565 1.312Zm-.095-6.992c1.254 0 1.957-.76 1.957-1.898 0-1.217-.779-1.92-1.957-1.92-1.216 0-1.938.779-1.938 1.92 0 1.215.779 1.898 1.938 1.898M335.624 874.345h1.71l.266 1.861h.133c.608-1.291 1.843-2.052 3.344-2.052 2.223 0 3.457 1.614 3.457 4.085v6.098h-1.976v-5.908c0-1.748-.798-2.564-2.223-2.564-1.672 0-2.754 1.311-2.754 3.229v5.243h-1.957zM346.701 879.378c0-3.172 1.9-5.224 4.75-5.224 2.831 0 4.502 1.805 4.502 4.521 0 .342-.038.778-.095 1.103h-7.181c-.038 2.051 1.083 3.172 2.812 3.172 1.349 0 2.317-.684 2.564-1.672h1.957c-.342 1.938-2.127 3.248-4.54 3.248-2.85 0-4.769-2.032-4.769-5.148m7.276-1.006c0-1.691-.95-2.641-2.564-2.641-1.596 0-2.66 1.045-2.717 2.641zM365.7 884.337l-.209-1.767h-.133c-.513 1.216-1.843 1.956-3.401 1.956-2.583 0-4.217-1.975-4.217-5.109 0-3.23 1.71-5.263 4.236-5.263 1.71 0 2.888.912 3.382 2.147h.133v-5.947h1.976v13.982H365.7Zm-.209-5.51c0-1.823-1.254-2.963-2.907-2.963-1.843 0-2.831 1.387-2.831 3.553 0 2.26 1.102 3.419 2.792 3.419 1.748 0 2.945-1.235 2.945-2.888v-1.121Z"/></g><g fill="#fab360"><path d="M153.668 876.65v-.173c-1.425-.647-2.267-2.072-2.267-3.648 0-2.483 2.116-4.232 5.268-4.232 3.131 0 5.268 1.728 5.268 4.232 0 1.576-.842 2.979-2.245 3.648v.173c1.425.69 2.245 2.073 2.245 3.671 0 2.504-2.137 4.231-5.29 4.231-3.131 0-5.247-1.749-5.247-4.231 0-1.641.82-2.98 2.267-3.671Zm2.98-.993c1.878 0 2.958-1.059 2.958-2.548 0-1.598-1.188-2.548-2.958-2.548-1.835 0-2.915 1.037-2.915 2.548 0 1.598 1.209 2.548 2.915 2.548m0 6.91c1.9 0 2.958-1.036 2.958-2.548 0-1.576-1.188-2.548-2.958-2.548-1.857 0-2.915 1.079-2.915 2.548 0 1.641 1.231 2.548 2.915 2.548M163.798 868.77h10.45v1.598c-2.829 3.952-5.268 9.37-6.089 13.97h-2.418c.734-4.361 3.044-9.607 5.808-13.603h-5.895v2.785h-1.857v-4.75ZM180.039 868.425c2.311 0 3.843 1.576 3.843 3.907s-1.555 3.93-3.843 3.93c-2.246 0-3.822-1.598-3.822-3.951 0-2.31 1.555-3.886 3.822-3.886m0 6.348c1.295 0 2.159-1.016 2.159-2.462 0-1.425-.864-2.418-2.159-2.418-1.252 0-2.116.993-2.116 2.418 0 1.446.842 2.462 2.116 2.462m8.96-6.176h1.598l-9.975 15.74h-1.598zm.302 8.075c2.289 0 3.8 1.642 3.8 3.951s-1.533 3.93-3.8 3.93c-2.289 0-3.843-1.598-3.843-3.951 0-2.288 1.533-3.93 3.843-3.93m0 6.392c1.252 0 2.138-1.016 2.138-2.462 0-1.425-.885-2.44-2.138-2.44-1.295 0-2.159 1.016-2.159 2.44 0 1.446.885 2.462 2.159 2.462"/></g><rect width="39.666" height="39.666" x="96.604" y="857.627" fill="#473f38" rx="3.5" ry="3.5"/><g fill="#fab360"><path d="M108.084 874.678v-1.879l6.118-3.725 5.338 3.793 5.061-3.599v1.965l-5.061 3.589-5.398-3.826zM108.084 877.531v8.316h4.014v-10.756zM120.775 876.933v8.914h4.014v-11.759z"/><path d="M114.43 874.187v11.66h4.013v-8.815z"/></g><rect width="1190.332" height="739.404" x="679.668" y="289.796" fill="#fafafa" opacity=".07" rx="6" ry="6"/><g fill="none" stroke="#151a22" stroke-miterlimit="10" stroke-width="1.29" clip-path="url(#a)"><path d="m674.918 397.225 93.083-119.56M666.327 643.397l228.131-365.732M677.78 1088.991l342.805-810.553M975.805 1088.991l171.715-812.009M1273.831 1088.991V277.656M654.902 348.919h1237.893M654.902 442.73h1237.893M654.902 550.636h1237.893M654.902 689.991h1237.893M654.902 870.906h1237.893M1873.057 397.225l-93.083-119.56M1881.648 643.397l-228.131-365.732M1870.195 1088.991l-342.804-810.553M1572.17 1088.991l-171.715-812.009"/></g><path fill="#f99d41" d="M1869.952 106.512a6 6 0 0 0-5.952-5.273h-288.835a6 6 0 0 0-5.952 5.273z"/><path fill="#6bce95" d="M1566.119 106.512a6 6 0 0 0-5.952-5.273h-288.835a6 6 0 0 0-5.952 5.273z"/><path fill="#fc665e" d="M1262.286 106.512a6 6 0 0 0-5.952-5.273H967.499a6 6 0 0 0-5.952 5.273z"/><path fill="#16894a" d="m1273.754 871.003-11.157-11.157h-15.62q-3.031 0-5.133-2.101-2.1-2.1-2.101-5.133v-53.554q0-3.032 2.101-5.133t5.133-2.101h53.554q3.031 0 5.133 2.101c2.102 2.101 2.101 3.111 2.101 5.133v53.554q0 3.031-2.101 5.133c-2.101 2.102-3.111 2.101-5.133 2.101h-15.62z"/><path fill="#fafafa" d="m1274.484 808.154-13.817 5.173v10.566c0 4.385 1.304 8.407 3.877 11.955 2.578 3.555 5.881 5.901 9.818 6.975l.122.033.122-.033c3.938-1.074 7.241-3.421 9.818-6.975 2.573-3.548 3.877-7.57 3.877-11.955v-10.566zm-.464 4.006v26.75c-2.705-1.002-4.994-2.846-6.809-5.488-1.954-2.845-2.945-6.052-2.945-9.529v-8.09z"/><path fill="#6bce95" d="m1021.741 871.003-11.157-11.157h-15.62q-3.032 0-5.133-2.101c-2.101-2.101-2.101-3.111-2.101-5.133v-53.554q0-3.032 2.101-5.133c2.101-2.101 3.111-2.101 5.133-2.101h53.554q3.032 0 5.133 2.101t2.101 5.133v53.554q0 3.031-2.101 5.133-2.1 2.1-5.133 2.101h-15.62z"/><path fill="#fafafa" d="M1036.081 818.13h-5.178v-7.429h-26.802v23.9h3.302q0 2.282 1.594 3.88c1.594 1.598 2.356 1.598 3.88 1.598s2.817-.532 3.883-1.595q1.599-1.594 1.599-3.883h9.543q0 2.282 1.595 3.88c1.595 1.598 2.356 1.598 3.879 1.598s2.817-.533 3.883-1.598q1.6-1.598 1.6-3.88h3.527v-8.029l-6.303-8.442Zm-21.389 18.283q-.74.74-1.812.739c-1.072-.001-1.32-.246-1.812-.739q-.74-.74-.739-1.812c.001-1.072.246-1.32.739-1.813q.74-.74 1.812-.739c1.072.001 1.32.246 1.812.739q.74.74.739 1.813c-.001 1.073-.246 1.319-.739 1.812m20.499 0q-.74.74-1.811.739c-1.071-.001-1.32-.246-1.813-.739q-.74-.74-.739-1.812c.001-1.072.246-1.32.739-1.813q.74-.74 1.813-.739c1.073.001 1.319.246 1.811.739q.74.74.74 1.813c0 1.073-.246 1.319-.74 1.812m-4.288-8.641v-6.716h3.677l5.065 6.716z"/><path fill="#f99d41" d="m1777.81 871.003-11.157-11.157h-15.62q-3.032 0-5.133-2.101c-2.101-2.101-2.101-3.111-2.101-5.133v-53.554q0-3.032 2.101-5.133c2.101-2.101 3.111-2.101 5.133-2.101h53.554q3.031 0 5.133 2.101 2.1 2.1 2.101 5.133v53.554q0 3.031-2.101 5.133-2.1 2.1-5.133 2.101h-15.62z"/><path fill="#fafafa" d="M1767.758 831.801c2.272 3.394 5.649 7.108 10.052 11.054 4.406-3.948 7.783-7.663 10.051-11.052 2.371-3.542 3.574-6.774 3.574-9.608 0-4.249-1.315-7.573-4.017-10.16-2.729-2.611-5.873-3.881-9.608-3.881s-6.879 1.27-9.608 3.882c-2.704 2.587-4.017 5.91-4.017 10.159 0 2.833 1.202 6.066 3.573 9.606m5.919-14.126c2.233-2.244 6.008-2.248 8.257-.009 1.124 1.121 1.717 2.549 1.717 4.13s-.591 3.006-1.711 4.128c-1.118 1.123-2.545 1.717-4.127 1.717s-3.005-.591-4.128-1.709c-1.125-1.121-1.718-2.548-1.718-4.129s.591-3.006 1.71-4.128"/><path fill="#5f6b7b" d="m1273.754 690.218-9.365-9.365h-13.11q-2.545 0-4.308-1.763c-1.763-1.763-1.763-2.611-1.763-4.308v-44.951q0-2.546 1.763-4.308c1.763-1.762 2.611-1.763 4.308-1.763h44.951q2.545 0 4.308 1.763c1.763 1.763 1.763 2.611 1.763 4.308v44.951q0 2.546-1.763 4.308c-1.763 1.762-2.611 1.763-4.308 1.763h-13.11l-9.365 9.365Z"/><path fill="#fafafa" d="m1274.366 637.465-11.597 4.342v8.869c0 3.68 1.095 7.056 3.254 10.034 2.164 2.984 4.937 4.953 8.241 5.855l.102.028.102-.028c3.305-.901 6.078-2.871 8.241-5.855 2.159-2.978 3.254-6.354 3.254-10.034v-8.869zm-.389 3.362v22.453c-2.271-.841-4.192-2.389-5.715-4.606-1.64-2.388-2.472-5.079-2.472-7.999v-6.791z"/><path fill="#6bce95" d="m1488.063 690.218-9.365-9.365h-13.11q-2.545 0-4.308-1.763c-1.763-1.763-1.763-2.611-1.763-4.308v-44.951q0-2.546 1.763-4.308c1.763-1.762 2.611-1.763 4.308-1.763h44.951q2.545 0 4.308 1.763c1.763 1.763 1.763 2.611 1.763 4.308v44.951q0 2.546-1.763 4.308c-1.763 1.762-2.611 1.763-4.308 1.763h-13.11l-9.365 9.365Z"/><path fill="#fafafa" d="M1500.099 645.838h-4.346v-6.236h-22.497v20.061h2.772q0 1.916 1.338 3.257c1.338 1.341 1.978 1.341 3.256 1.341s2.364-.446 3.259-1.339q1.342-1.339 1.342-3.259h8.01q0 1.916 1.339 3.257c1.339 1.341 1.978 1.341 3.256 1.341s2.365-.447 3.259-1.341q1.343-1.341 1.343-3.257h2.96v-6.739zm-17.952 15.346q-.62.621-1.521.621c-.901 0-1.108-.207-1.521-.621q-.62-.62-.62-1.521c0-.901.207-1.108.62-1.521q.62-.62 1.521-.62c.901 0 1.108.207 1.521.62q.62.621.62 1.521c0 .9-.207 1.107-.62 1.521m17.205 0q-.62.621-1.52.621c-.9 0-1.108-.207-1.522-.621q-.62-.62-.62-1.521c0-.901.207-1.108.62-1.521q.62-.62 1.522-.62c.902 0 1.107.207 1.52.62q.621.621.621 1.521c0 .9-.207 1.107-.621 1.521m-3.599-7.252v-5.637h3.086l4.252 5.637z"/><path fill="#f99d41" d="m846.311 690.218-9.365-9.365h-13.11q-2.546 0-4.308-1.763t-1.763-4.308v-44.951q0-2.546 1.763-4.308c1.763-1.762 2.611-1.763 4.308-1.763h44.951q2.546 0 4.308 1.763c1.762 1.763 1.763 2.611 1.763 4.308v44.951q0 2.546-1.763 4.308c-1.763 1.762-2.611 1.763-4.308 1.763h-13.11z"/><path fill="#fafafa" d="M837.874 657.313c1.907 2.848 4.742 5.966 8.437 9.279 3.698-3.314 6.533-6.432 8.436-9.277 1.99-2.973 3-5.686 3-8.064 0-3.566-1.104-6.356-3.372-8.528-2.291-2.192-4.929-3.258-8.064-3.258s-5.774 1.066-8.064 3.259c-2.269 2.171-3.372 4.961-3.372 8.527 0 2.378 1.009 5.091 2.999 8.063Zm4.969-11.857c1.874-1.884 5.043-1.887 6.931-.008.943.941 1.441 2.14 1.441 3.467s-.496 2.523-1.436 3.465c-.938.942-2.136 1.441-3.464 1.441s-2.523-.496-3.465-1.434c-.944-.941-1.442-2.139-1.442-3.466s.496-2.523 1.435-3.465"/><path fill="#d0980c" d="m1458.1 549.971-8.584-8.584h-12.017q-2.332 0-3.949-1.616t-1.616-3.949V494.62q0-2.332 1.616-3.949t3.949-1.616h41.202q2.332 0 3.949 1.616c1.617 1.616 1.616 2.394 1.616 3.949v41.202q0 2.332-1.616 3.949c-1.616 1.617-2.394 1.616-3.949 1.616h-12.017z"/><path fill="#fafafa" d="m1458.661 501.617-10.63 3.98v8.129c0 3.373 1.004 6.468 2.983 9.197 1.983 2.735 4.525 4.54 7.554 5.366l.094.026.094-.026c3.03-.826 5.571-2.632 7.554-5.366 1.979-2.73 2.983-5.824 2.983-9.197v-8.129zm-.357 3.082v20.58c-2.081-.771-3.842-2.189-5.238-4.222-1.503-2.189-2.266-4.656-2.266-7.332v-6.224z"/><path fill="#f99d41" d="m1642.227 550.066-8.584-8.584h-12.017q-2.332 0-3.949-1.616t-1.616-3.949v-41.202q0-2.332 1.616-3.949t3.949-1.616h41.202q2.332 0 3.949 1.616t1.616 3.949v41.202q0 2.332-1.616 3.949c-1.616 1.617-2.394 1.616-3.949 1.616h-12.017z"/><path fill="#fafafa" d="M1634.494 519.905c1.748 2.611 4.346 5.469 7.733 8.505 3.389-3.038 5.988-5.896 7.733-8.503 1.824-2.725 2.75-5.212 2.75-7.392 0-3.269-1.012-5.826-3.091-7.817-2.1-2.009-4.518-2.986-7.392-2.986s-5.292.977-7.392 2.987c-2.08 1.99-3.091 4.547-3.091 7.816 0 2.179.925 4.667 2.749 7.39Zm4.554-10.868c1.718-1.727 4.622-1.73 6.353-.007.865.862 1.321 1.961 1.321 3.178s-.455 2.313-1.316 3.176c-.86.864-1.958 1.321-3.175 1.321s-2.312-.455-3.176-1.315c-.865-.862-1.322-1.96-1.322-3.177s.455-2.313 1.316-3.176Z"/><path fill="#16894a" d="m1089.836 549.971-8.584-8.584h-12.017q-2.332 0-3.949-1.616t-1.616-3.949V494.62q0-2.332 1.616-3.949t3.949-1.616h41.202q2.332 0 3.949 1.616t1.616 3.949v41.202q0 2.332-1.616 3.949t-3.949 1.616h-12.017z"/><path fill="#fafafa" d="m1090.397 501.617-10.63 3.98v8.129c0 3.373 1.004 6.468 2.983 9.197 1.983 2.735 4.525 4.54 7.554 5.366l.094.026.094-.026c3.03-.826 5.571-2.632 7.554-5.366 1.979-2.73 2.983-5.824 2.983-9.197v-8.129zm-.357 3.082v20.58c-2.081-.771-3.842-2.189-5.238-4.222-1.503-2.189-2.266-4.656-2.266-7.332v-6.224z"/><path fill="#d0980c" d="m791.689 442.711-7.525-7.525H773.63q-2.045 0-3.461-1.417c-1.416-1.417-1.417-2.098-1.417-3.461v-36.117q0-2.045 1.417-3.461c1.417-1.416 2.098-1.417 3.461-1.417h36.117q2.045 0 3.461 1.417c1.416 1.417 1.417 2.098 1.417 3.461v36.117q0 2.045-1.417 3.461c-1.417 1.416-2.098 1.417-3.461 1.417h-10.534z"/><path fill="#fafafa" d="m792.181 400.325-9.318 3.489v7.126c0 2.957.88 5.67 2.614 8.062 1.739 2.397 3.966 3.98 6.622 4.704l.082.022.082-.022c2.656-.724 4.884-2.307 6.622-4.704 1.735-2.393 2.615-5.105 2.615-8.062v-7.126zm-.313 2.702v18.04c-1.825-.676-3.368-1.919-4.592-3.701-1.318-1.919-1.986-4.081-1.986-6.427v-5.456z"/><path fill="#f99d41" d="m1273.754 442.711-7.525-7.525h-10.534q-2.045 0-3.461-1.417-1.417-1.416-1.417-3.461v-36.117q0-2.045 1.417-3.461c1.417-1.416 2.098-1.417 3.461-1.417h36.117q2.045 0 3.461 1.417c1.416 1.417 1.417 2.098 1.417 3.461v36.117q0 2.045-1.417 3.461c-1.417 1.416-2.098 1.417-3.461 1.417h-10.534l-7.525 7.525Z"/><path fill="#fafafa" d="M1266.975 416.273c1.532 2.289 3.81 4.794 6.779 7.455 2.971-2.663 5.249-5.168 6.778-7.454 1.599-2.389 2.411-4.568 2.411-6.479 0-2.866-.887-5.107-2.709-6.852-1.841-1.761-3.961-2.618-6.479-2.618s-4.639.857-6.479 2.618c-1.823 1.745-2.709 3.986-2.709 6.852 0 1.91.811 4.091 2.41 6.478Zm3.992-9.527c1.506-1.514 4.052-1.516 5.569-.006.758.756 1.158 1.719 1.158 2.785s-.399 2.028-1.154 2.784c-.754.757-1.716 1.158-2.783 1.158s-2.027-.399-2.784-1.153c-.759-.756-1.159-1.719-1.159-2.785s.399-2.028 1.153-2.784Z"/></svg>