<svg xmlns="http://www.w3.org/2000/svg" viewBox="0 0 410 126"><path fill="#111213" d="M57.844 126C23.458 126 .645 100.671.645 63.265S23.458.53 57.844.53c28.18 0 48.812 16.103 52.838 41.432h-15.6c-4.193-17.277-18.451-27.677-37.238-27.677-25.161 0-41.096 19.29-41.096 48.98 0 29.858 15.935 48.98 40.929 48.98 20.799 0 33.715-11.238 37.406-28.013h15.6C107.329 109.728 86.193 126 57.845 126ZM122.982 1.369h14.593v51.328h1.007c5.368-11.071 16.606-17.613 29.522-17.613 19.123 0 30.361 13.587 30.361 35.225v54.013H184.04V71.819c0-16.271-7.548-23.819-20.8-23.819-15.432 0-25.665 11.91-25.665 30.026v46.296h-14.593zM244.748 72.155h23.316v-6.542c0-13.587-8.051-18.955-20.129-18.955-12.245 0-19.961 6.207-20.464 15.6h-14.09c1.342-16.438 15.432-27.174 35.226-27.174 22.309 0 33.883 12.245 33.883 31.703v39.922c0 3.354.168 6.709 5.367 6.709 1.174 0 2.516-.168 3.188-.335v11.238c-2.348.671-5.367 1.007-7.381 1.007-9.393 0-14.762-5.032-14.762-15.433h-1.006c-3.857 9.729-15.432 16.104-29.019 16.104-17.445 0-29.187-10.4-29.187-25.664 0-18.619 13.922-28.181 35.058-28.181Zm-2.852 41.768c15.767 0 26.167-11.071 26.167-26.503v-4.697h-22.142c-14.593 0-21.303 6.206-21.303 15.936 0 9.896 6.877 15.265 17.277 15.265ZM301.464 2.878h14.426v19.123h-14.426zm0 33.884h14.426v87.56h-14.426zM333.705 36.762h12.748l1.846 16.271h1.174c5.367-11.238 16.439-17.948 29.521-17.948 19.123 0 30.361 13.755 30.361 35.393v53.845h-14.594V71.988c0-16.438-7.379-23.987-20.631-23.987-15.432 0-25.832 12.245-25.832 30.529v45.793h-14.594z"/></svg>