<svg xmlns="http://www.w3.org/2000/svg" viewBox="0 0 624 126"><path fill="#111213" d="M.723 2.04h53.844c26 0 38.245 14.09 38.245 34.554 0 14.929-8.052 25.329-19.961 30.696v1.174c12.412 2.684 17.612 11.238 17.612 23.483v18.955c0 4.193 0 9.058 1.846 13.419H76.708c-1.509-3.354-1.677-7.381-1.677-14.761V94.966c0-12.58-4.193-18.787-19.123-18.787H15.987v48.142H.723zM49.2 62.426c16.941 0 27.677-9.561 27.677-24.155 0-16.103-10.064-22.645-25.161-22.645H15.987v46.799H49.2ZM101.303 80.71c0-27.677 16.606-45.625 41.265-45.625s38.748 15.768 38.748 39.419c0 2.852-.168 6.541-.504 9.058h-64.747c-.336 19.626 10.399 30.528 27.006 30.528 13.084 0 22.142-6.709 24.322-16.103h14.594C178.967 114.593 163.703 126 142.736 126c-24.658 0-41.433-17.613-41.433-45.29m65.587-7.884c0-16.606-8.891-25.832-24.49-25.832-15.265 0-25.664 10.232-26.167 25.832zM223.657 72.155h23.315v-6.542c0-13.587-8.052-18.955-20.129-18.955-12.245 0-19.961 6.207-20.464 15.6h-14.09c1.342-16.438 15.432-27.174 35.225-27.174 22.31 0 33.884 12.245 33.884 31.703v39.922c0 3.354.168 6.709 5.367 6.709 1.175 0 2.517-.168 3.188-.335v11.238c-2.349.671-5.367 1.007-7.381 1.007-9.394 0-14.761-5.032-14.761-15.433h-1.007c-3.857 9.729-15.432 16.104-29.019 16.104-17.445 0-29.187-10.4-29.187-25.664 0-18.619 13.922-28.181 35.058-28.181Zm-2.852 41.768c15.768 0 26.167-11.071 26.167-26.503v-4.697H224.83c-14.594 0-21.303 6.206-21.303 15.936 0 9.896 6.877 15.265 17.277 15.265ZM314.911 126c-25.329 0-41.768-17.948-41.768-45.29s16.438-45.625 42.438-45.625c20.464 0 35.561 12.078 37.406 30.193h-14.762c-2.516-11.91-12.077-17.277-23.148-17.277-17.78 0-27.006 13.419-27.006 32.877 0 20.967 10.567 32.373 26.839 32.373 13.083 0 22.309-7.548 23.651-18.786h14.929C351.644 113.419 336.213 126 314.91 126ZM438.656 124.322H424.23V48.839h-40.09v50.154c0 5.368.503 14.091 11.741 14.091 3.355 0 5.871-.336 7.884-1.007v12.245c-3.354.839-7.548 1.342-10.399 1.342-18.116 0-23.651-10.567-23.651-24.993V48.839h-15.097V36.762h15.097V10.259l14.426-5.536v32.039h54.516zm0-121.444v19.123H424.23V2.878zM493.342 35.084c25.16 0 41.767 18.619 41.767 45.625 0 26.838-16.606 45.29-41.767 45.29-25.329 0-42.271-18.284-42.271-45.122 0-27.006 16.941-45.793 42.271-45.793m-.168 78c16.438 0 27.006-12.077 27.006-32.71 0-19.29-9.562-32.374-27.006-32.374C476.736 48 466 60.245 466 80.542c0 19.458 9.729 32.542 27.174 32.542M547.626 36.762h12.748l1.845 16.271h1.175c5.367-11.238 16.438-17.948 29.521-17.948 19.123 0 30.361 13.755 30.361 35.393v53.845h-14.594V71.988c0-16.438-7.38-23.987-20.632-23.987-15.432 0-25.832 12.245-25.832 30.529v45.793h-14.593z"/></svg>