<?xml version="1.0" encoding="UTF-8"?>
<svg id="Layer_1" xmlns="http://www.w3.org/2000/svg" version="1.1" viewBox="0 0 348.3 117">
  <!-- Generator: Adobe Illustrator 30.2.1, SVG Export Plug-In . SVG Version: 2.1.1 Build 1)  -->
  <defs>
    <style>
      .st0 {
        fill: #3a4a16;
      }
    </style>
  </defs>
  <path class="st0" d="M1.8,47.4v-1.9h.2c3,0,4.1-1.4,4.1-4.8v-12.5c0-1.8-.2-2.7-1.9-3.9l-4.1-2.9c5.7-2,11.5-4.8,17.6-8.3v5.6c2.7-3.7,6.1-5.3,10.9-5.3s7.9,1.8,9.5,5.2c2.4-3.5,6-5.2,10.4-5.2,7.2,0,10.7,3.7,10.7,11.2v16c0,3.4,1.1,4.8,4.1,4.8h.2v1.9h-16.9v-22.4c0-4.3-.8-6.4-3.8-6.4s-3.6,2.1-3.6,6.4v15.6c0,3.4,1.1,4.8,4.1,4.8h.2v1.9h-21.2v-1.9h.2c3,0,4.1-1.4,4.1-4.8v-15.6c0-4.3-.8-6.4-3.8-6.4s-3.6,2.1-3.6,6.4v22.4H1.8Z"/>
  <path class="st0" d="M73.6,48.8c-5.5,0-9.1-3.5-9.1-8.2,0-6.7,6.4-10.1,19.6-15.2v-2.4c0-4.7-1.1-6.9-4.1-6.9s-4.1,1.6-4.1,3.7.1,2.6.1,3.3c0,3.3-2,5.4-4.9,5.4s-4.5-1.8-4.5-4.6c0-5.7,5.8-10.4,15.2-10.4s9.3,1.4,11.8,3.7c2.6,2.5,2.9,5.4,2.9,9.5v9.4c0,4.9.6,7.2,2.6,7.2s.8-.2,1.2-.5v2.2c-1.8,2.2-4.7,3.5-8,3.5s-6.5-1.8-7.8-5.4c-3.3,3.8-7,5.7-11.1,5.7ZM77.9,37.9c0,2.9,1.3,4.6,3,4.6,3,0,3-2.7,3-8.3v-6.3c-3.9,1.6-6.1,5-6.1,10Z"/>
  <path class="st0" d="M127.1,13.4c3.2,0,5.4,2.1,5.4,5.3s-1.8,4.6-4.5,4.6-4.3-3-5.7-3-2,2.2-2,6.6v13.7c0,3.4,1.2,4.8,4.5,4.8h.2v1.9h-21.6v-1.9h.2c3,0,4.1-1.4,4.1-4.8v-12.5c0-1.8-.2-2.7-1.9-3.9l-4.1-2.9c4.9-1.7,10.7-4.5,17.8-8.3v5.8c2.2-3.7,4.7-5.6,7.7-5.6Z"/>
  <path class="st0" d="M138.1,22.8l-3.6-2.9c5.1-1.6,11.2-3.9,18.2-6.7v27.5c0,3.3,1.1,4.7,3.9,4.8v1.9h-20.9v-1.9h.2c3,0,4.1-1.4,4.1-4.8v-14c0-2-.3-2.6-1.9-3.9ZM145.7,0c3.7,0,6.6,2.9,6.6,6.6s-3,6.6-6.6,6.6-6.6-2.9-6.6-6.6,2.9-6.6,6.6-6.6Z"/>
  <path class="st0" d="M161.4,47.4v-1.9h.2c3,0,4.1-1.4,4.1-4.8v-12.5c0-1.8-.2-2.7-1.9-3.9l-4.1-2.9c5.7-2,11.5-4.8,17.6-8.3v5.6c2.7-3.7,6.1-5.3,10.9-5.3s7.9,1.8,9.5,5.2c2.4-3.5,6-5.2,10.4-5.2,7.2,0,10.7,3.7,10.7,11.2v16c0,3.4,1.1,4.8,4.1,4.8h.2v1.9h-16.9v-22.4c0-4.3-.8-6.4-3.8-6.4s-3.6,2.1-3.6,6.4v15.6c0,3.4,1.1,4.8,4.1,4.8h.2v1.9h-21.2v-1.9h.2c3,0,4.1-1.4,4.1-4.8v-15.6c0-4.3-.8-6.4-3.8-6.4s-3.6,2.1-3.6,6.4v22.4h-16.9Z"/>
  <path class="st0" d="M231.6,46c-.6.9-.9,1.4-2,1.4h-2.2c.6-1.2.9-2.6.9-4.3V13.5c0-2-.3-2.6-1.9-3.9l-3.6-2.9c3.8-1.2,9.8-3.5,18-6.7v17.6c2.1-2.7,5.3-4.1,9-4.1,8,0,14.2,7.2,14.2,17.7s-6.9,17.6-17,17.6-9.9-2.4-12.4-7.4l-3,4.5h0ZM250.1,32.4c0-9.6-.4-14.1-4.6-14.1s-4.7,4.5-4.7,14.1.4,14.1,4.7,14.1,4.6-4.5,4.6-14.1Z"/>
  <path class="st0" d="M276.9,48.8c-5.5,0-9.1-3.5-9.1-8.2,0-6.7,6.4-10.1,19.6-15.2v-2.4c0-4.7-1.1-6.9-4.1-6.9s-4.1,1.6-4.1,3.7.1,2.6.1,3.3c0,3.3-2,5.4-4.9,5.4s-4.5-1.8-4.5-4.6c0-5.7,5.8-10.4,15.2-10.4s9.3,1.4,11.8,3.7c2.6,2.5,2.9,5.4,2.9,9.5v9.4c0,4.9.6,7.2,2.6,7.2s.8-.2,1.2-.5v2.2c-1.8,2.2-4.7,3.5-8,3.5s-6.5-1.8-7.8-5.4c-3.3,3.8-7,5.7-11.1,5.7ZM281.3,37.9c0,2.9,1.3,4.6,3,4.6,3,0,3-2.7,3-8.3v-6.3c-3.9,1.6-6.1,5-6.1,10Z"/>
  <path class="st0" d="M320.3,35.4c3.7,0,6.6,2.9,6.6,6.6s-3,6.6-6.6,6.6-6.6-2.9-6.6-6.6,2.9-6.6,6.6-6.6Z"/>
  <path class="st0" d="M137.3,98.2c4,0,4.5-3.9,4.5-12.5s-.4-12.5-4.5-12.5-4.4,3.9-4.4,12.5.5,12.5,4.4,12.5ZM141.9,68.4c0-2-.3-2.6-1.8-3.8l-3.4-2.9c4.6-1.4,10.3-3.8,17.3-6.7v40.5c0,3.4,1,4.8,3.9,4.8h.2v1.9h-16.3v-3.7c-2.3,3.4-5.5,5.1-9.6,5.1-7.5,0-12.6-6-12.6-16.3s5.7-18.9,13.7-18.9,6.7,1.4,8.7,4.1v-4.1Z"/>
  <path class="st0" d="M169.8,80.4h2.9c4.6,0,6.3,0,6.3-3.7s-1.4-5.9-4.1-5.9-5.1,3.1-5.1,9.6ZM188.1,96.7c-3.6,4.5-8.4,6.9-13.7,6.9s-9.2-2.1-12.2-5.9c-2.5-3.1-3.8-6.9-3.8-11.2s1.2-8.2,3.7-11.8c2.7-3.8,7.7-6.4,12.5-6.4,8.1,0,13.6,5.5,13.6,14.5h-18.4c.3,8.1,5.8,13.6,12.1,13.6s4.5-.9,6.2-2.8v3.1Z"/>
  <path class="st0" d="M191.9,100.8v-10.8h1.6c2,7.3,6.1,11.2,11.3,11.2s4.5-1.5,4.5-3.9c0-3.7-2.7-4.7-7.3-6.7-6.6-2.8-10-4.9-10-10.6s5.3-11.6,14.2-11.6,6.6.5,10.4,1.8v9h-1.6c-2.7-5.7-5.3-8.4-9.3-8.4s-4.7,1.6-4.7,3.8,2.9,4,7.9,6.1c6.7,2.8,10.1,4.8,10.1,10.8s-5.8,12.1-14.4,12.1-8.5-.9-12.9-2.8Z"/>
  <path class="st0" d="M225.7,61.6c0-3.7,2.8-6.6,6.4-6.6s6.4,2.9,6.4,6.6-2.9,6.6-6.4,6.6-6.4-2.9-6.4-6.6ZM226.6,81.5c0-2-.3-2.6-1.8-3.8l-3.4-2.9c4.9-1.6,10.8-3.8,17.5-6.7v27.4c0,3.3,1,4.7,3.8,4.8v1.9h-20.1v-1.9h.2c2.9,0,3.9-1.4,3.9-4.8v-14Z"/>
  <path class="st0" d="M250.6,88.8c-3-2-4.6-5.1-4.6-8.5,0-6.8,6.1-12,15.7-12s2.3.1,3.6.4c1.4-3.8,4.5-6.1,8-6.1s4.6,1.8,4.6,4.2-1.5,3.6-3.4,3.6-4-2.2-5.7-2.2-1.1.3-1.4.9c5.7,2,8.8,5.9,8.8,10.9s-6,11.6-15.7,11.6-5.1-.5-7.6-1.4c-2.1.4-3.3,1.6-3.3,3s1.4,3,3.5,3,3.3-.7,5.7-1.7c2.9-1.1,5.7-2.2,8.8-2.2,6.4,0,10.7,4.4,10.7,10.6s-6.8,13.4-18.3,13.4-14.6-3-14.6-7.3.7-3,2.1-4.2c-2.3-1.6-3.5-4.1-3.5-7.2s2.2-7.3,6.5-8.9ZM250.4,106.5c-.2.5-.3.9-.3,1.2,0,2.9,3.8,6,10.1,6s9.3-2.4,9.3-5.5-1.5-3.4-3.9-3.4-6.8,2.3-11.8,2.3-2.3-.2-3.4-.6ZM261.1,89.1c3.4,0,4.6-2.8,4.6-9s-1.2-9.4-4.6-9.4-4.6,3-4.6,9.3,1.2,9.1,4.6,9.1Z"/>
  <path class="st0" d="M297,95.5c0,3.3,1,4.7,3.8,4.8v1.9h-20.1v-1.9h.2c2.9,0,3.9-1.4,3.9-4.8v-12.4c0-1.8-.2-2.7-1.8-3.8l-4-2.9c5.5-2,11.1-4.8,16.9-8.2v5.6c2.5-3.5,5.9-5.3,10.1-5.3,7,0,10.3,3.6,10.3,11.1v15.9c0,3.4,1,4.8,3.9,4.8h.2v1.9h-16.3v-22.3c0-4.3-.8-6.3-3.7-6.3s-3.4,2.1-3.4,6.3v15.6Z"/>
  <path class="st0" d="M320.2,100.8v-10.8h1.6c2,7.3,6.1,11.2,11.3,11.2s4.5-1.5,4.5-3.9c0-3.7-2.7-4.7-7.3-6.7-6.6-2.8-10-4.9-10-10.6s5.3-11.6,14.2-11.6,6.6.5,10.4,1.8v9h-1.6c-2.7-5.7-5.3-8.4-9.3-8.4s-4.7,1.6-4.7,3.8,2.9,4,7.9,6.1c6.7,2.8,10.1,4.8,10.1,10.8s-5.8,12.1-14.4,12.1-8.5-.9-12.9-2.8Z"/>
</svg>